<?xml version="1.0" encoding="UTF-8" standalone="no"?>
<!DOCTYPE svg PUBLIC "-//W3C//DTD SVG 1.1//EN"
 "http://www.w3.org/Graphics/SVG/1.1/DTD/svg11.dtd">
<!-- Generated by graphviz version 11.0.0 (0)
 -->
<!-- Pages: 1 -->
<svg width="299pt" height="364pt"
 viewBox="0.00 0.00 298.60 364.45" xmlns="http://www.w3.org/2000/svg" xmlns:xlink="http://www.w3.org/1999/xlink">
<g id="graph0" class="graph" transform="scale(1 1) rotate(0) translate(4 360.45)">
<polygon fill="white" stroke="none" points="-4,4 -4,-360.45 294.6,-360.45 294.6,4 -4,4"/>
<g id="clust1" class="cluster">
<title>cluster__obs__ (352)</title>
<path fill="none" stroke="black" d="M60.32,-8C60.32,-8 142.32,-8 142.32,-8 148.32,-8 154.32,-14 154.32,-20 154.32,-20 154.32,-223.23 154.32,-223.23 154.32,-229.23 148.32,-235.23 142.32,-235.23 142.32,-235.23 60.32,-235.23 60.32,-235.23 54.32,-235.23 48.32,-229.23 48.32,-223.23 48.32,-223.23 48.32,-20 48.32,-20 48.32,-14 54.32,-8 60.32,-8"/>
<text text-anchor="middle" x="106.94" y="-15.2" font-family="Times,serif" font-size="14.00">__obs__ (352)</text>
</g>
<!-- weight_c -->
<g id="node1" class="node">
<title>weight_c</title>
<ellipse fill="none" stroke="black" cx="46.32" cy="-315.79" rx="46.32" ry="40.66"/>
<text text-anchor="middle" x="46.32" y="-327.24" font-family="Times,serif" font-size="14.00">weight_c</text>
<text text-anchor="middle" x="46.32" y="-310.74" font-family="Times,serif" font-size="14.00">~</text>
<text text-anchor="middle" x="46.32" y="-294.24" font-family="Times,serif" font-size="14.00">Normal</text>
</g>
<!-- mu -->
<g id="node5" class="node">
<title>mu</title>
<polygon fill="none" stroke="black" points="146.44,-227.23 56.19,-227.23 56.19,-169.73 146.44,-169.73 146.44,-227.23"/>
<text text-anchor="middle" x="101.32" y="-209.93" font-family="Times,serif" font-size="14.00">mu</text>
<text text-anchor="middle" x="101.32" y="-193.43" font-family="Times,serif" font-size="14.00">~</text>
<text text-anchor="middle" x="101.32" y="-176.93" font-family="Times,serif" font-size="14.00">Deterministic</text>
</g>
<!-- weight_c&#45;&gt;mu -->
<g id="edge1" class="edge">
<title>weight_c&#45;&gt;mu</title>
<path fill="none" stroke="black" d="M63.87,-277.99C70.02,-265.09 76.94,-250.58 83.14,-237.58"/>
<polygon fill="black" stroke="black" points="86.14,-239.43 87.28,-228.9 79.82,-236.42 86.14,-239.43"/>
</g>
<!-- Intercept -->
<g id="node2" class="node">
<title>Intercept</title>
<ellipse fill="none" stroke="black" cx="156.32" cy="-315.79" rx="45.25" ry="40.66"/>
<text text-anchor="middle" x="156.32" y="-327.24" font-family="Times,serif" font-size="14.00">Intercept</text>
<text text-anchor="middle" x="156.32" y="-310.74" font-family="Times,serif" font-size="14.00">~</text>
<text text-anchor="middle" x="156.32" y="-294.24" font-family="Times,serif" font-size="14.00">Normal</text>
</g>
<!-- Intercept&#45;&gt;mu -->
<g id="edge2" class="edge">
<title>Intercept&#45;&gt;mu</title>
<path fill="none" stroke="black" d="M138.76,-277.99C132.61,-265.09 125.69,-250.58 119.49,-237.58"/>
<polygon fill="black" stroke="black" points="122.81,-236.42 115.35,-228.9 116.49,-239.43 122.81,-236.42"/>
</g>
<!-- sigma -->
<g id="node3" class="node">
<title>sigma</title>
<ellipse fill="none" stroke="black" cx="227.32" cy="-198.48" rx="63.29" ry="40.66"/>
<text text-anchor="middle" x="227.32" y="-209.93" font-family="Times,serif" font-size="14.00">sigma</text>
<text text-anchor="middle" x="227.32" y="-193.43" font-family="Times,serif" font-size="14.00">~</text>
<text text-anchor="middle" x="227.32" y="-176.93" font-family="Times,serif" font-size="14.00">HalfStudentT</text>
</g>
<!-- height -->
<g id="node4" class="node">
<title>height</title>
<ellipse fill="lightgrey" stroke="black" cx="103.32" cy="-81.16" rx="41.01" ry="40.66"/>
<text text-anchor="middle" x="103.32" y="-92.61" font-family="Times,serif" font-size="14.00">height</text>
<text text-anchor="middle" x="103.32" y="-76.11" font-family="Times,serif" font-size="14.00">~</text>
<text text-anchor="middle" x="103.32" y="-59.61" font-family="Times,serif" font-size="14.00">Normal</text>
</g>
<!-- sigma&#45;&gt;height -->
<g id="edge3" class="edge">
<title>sigma&#45;&gt;height</title>
<path fill="none" stroke="black" d="M191.78,-164.43C175.94,-149.69 157.25,-132.32 141.15,-117.34"/>
<polygon fill="black" stroke="black" points="143.8,-115.03 134.1,-110.79 139.04,-120.16 143.8,-115.03"/>
</g>
<!-- mu&#45;&gt;height -->
<g id="edge4" class="edge">
<title>mu&#45;&gt;height</title>
<path fill="none" stroke="black" d="M101.8,-169.27C101.99,-158.44 102.21,-145.73 102.43,-133.41"/>
<polygon fill="black" stroke="black" points="105.92,-133.84 102.59,-123.78 98.92,-133.72 105.92,-133.84"/>
</g>
</g>
</svg>
