<?xml version="1.0" encoding="UTF-8" standalone="no"?>
<!DOCTYPE svg PUBLIC "-//W3C//DTD SVG 1.1//EN"
 "http://www.w3.org/Graphics/SVG/1.1/DTD/svg11.dtd">
<!-- Generated by graphviz version 11.0.0 (0)
 -->
<!-- Pages: 1 -->
<svg width="290pt" height="364pt"
 viewBox="0.00 0.00 290.30 364.45" xmlns="http://www.w3.org/2000/svg" xmlns:xlink="http://www.w3.org/1999/xlink">
<g id="graph0" class="graph" transform="scale(1 1) rotate(0) translate(4 360.45)">
<polygon fill="white" stroke="none" points="-4,4 -4,-360.45 286.3,-360.45 286.3,4 -4,4"/>
<g id="clust1" class="cluster">
<title>cluster__obs__ (144)</title>
<path fill="none" stroke="black" d="M52.01,-8C52.01,-8 134.01,-8 134.01,-8 140.01,-8 146.01,-14 146.01,-20 146.01,-20 146.01,-223.23 146.01,-223.23 146.01,-229.23 140.01,-235.23 134.01,-235.23 134.01,-235.23 52.01,-235.23 52.01,-235.23 46.01,-235.23 40.01,-229.23 40.01,-223.23 40.01,-223.23 40.01,-20 40.01,-20 40.01,-14 46.01,-8 52.01,-8"/>
<text text-anchor="middle" x="98.64" y="-15.2" font-family="Times,serif" font-size="14.00">__obs__ (144)</text>
</g>
<!-- Days -->
<g id="node1" class="node">
<title>Days</title>
<ellipse fill="none" stroke="black" cx="41.01" cy="-315.79" rx="41.01" ry="40.66"/>
<text text-anchor="middle" x="41.01" y="-327.24" font-family="Times,serif" font-size="14.00">Days</text>
<text text-anchor="middle" x="41.01" y="-310.74" font-family="Times,serif" font-size="14.00">~</text>
<text text-anchor="middle" x="41.01" y="-294.24" font-family="Times,serif" font-size="14.00">Normal</text>
</g>
<!-- mu -->
<g id="node4" class="node">
<title>mu</title>
<polygon fill="none" stroke="black" points="138.14,-227.23 47.89,-227.23 47.89,-169.73 138.14,-169.73 138.14,-227.23"/>
<text text-anchor="middle" x="93.01" y="-209.93" font-family="Times,serif" font-size="14.00">mu</text>
<text text-anchor="middle" x="93.01" y="-193.43" font-family="Times,serif" font-size="14.00">~</text>
<text text-anchor="middle" x="93.01" y="-176.93" font-family="Times,serif" font-size="14.00">Deterministic</text>
</g>
<!-- Days&#45;&gt;mu -->
<g id="edge1" class="edge">
<title>Days&#45;&gt;mu</title>
<path fill="none" stroke="black" d="M57.47,-278.31C63.23,-265.52 69.72,-251.12 75.57,-238.17"/>
<polygon fill="black" stroke="black" points="78.75,-239.62 79.67,-229.07 72.37,-236.74 78.75,-239.62"/>
</g>
<!-- Intercept -->
<g id="node2" class="node">
<title>Intercept</title>
<ellipse fill="none" stroke="black" cx="145.01" cy="-315.79" rx="45.25" ry="40.66"/>
<text text-anchor="middle" x="145.01" y="-327.24" font-family="Times,serif" font-size="14.00">Intercept</text>
<text text-anchor="middle" x="145.01" y="-310.74" font-family="Times,serif" font-size="14.00">~</text>
<text text-anchor="middle" x="145.01" y="-294.24" font-family="Times,serif" font-size="14.00">Normal</text>
</g>
<!-- Intercept&#45;&gt;mu -->
<g id="edge2" class="edge">
<title>Intercept&#45;&gt;mu</title>
<path fill="none" stroke="black" d="M128.27,-277.67C122.52,-264.91 116.07,-250.61 110.28,-237.77"/>
<polygon fill="black" stroke="black" points="113.52,-236.44 106.22,-228.76 107.14,-239.32 113.52,-236.44"/>
</g>
<!-- sigma -->
<g id="node3" class="node">
<title>sigma</title>
<ellipse fill="none" stroke="black" cx="219.01" cy="-198.48" rx="63.29" ry="40.66"/>
<text text-anchor="middle" x="219.01" y="-209.93" font-family="Times,serif" font-size="14.00">sigma</text>
<text text-anchor="middle" x="219.01" y="-193.43" font-family="Times,serif" font-size="14.00">~</text>
<text text-anchor="middle" x="219.01" y="-176.93" font-family="Times,serif" font-size="14.00">HalfStudentT</text>
</g>
<!-- Reaction -->
<g id="node5" class="node">
<title>Reaction</title>
<ellipse fill="lightgrey" stroke="black" cx="93.01" cy="-81.16" rx="45.25" ry="40.66"/>
<text text-anchor="middle" x="93.01" y="-92.61" font-family="Times,serif" font-size="14.00">Reaction</text>
<text text-anchor="middle" x="93.01" y="-76.11" font-family="Times,serif" font-size="14.00">~</text>
<text text-anchor="middle" x="93.01" y="-59.61" font-family="Times,serif" font-size="14.00">Normal</text>
</g>
<!-- sigma&#45;&gt;Reaction -->
<g id="edge4" class="edge">
<title>sigma&#45;&gt;Reaction</title>
<path fill="none" stroke="black" d="M183.24,-164.74C167.38,-150.22 148.67,-133.1 132.41,-118.22"/>
<polygon fill="black" stroke="black" points="135.01,-115.86 125.27,-111.69 130.29,-121.02 135.01,-115.86"/>
</g>
<!-- mu&#45;&gt;Reaction -->
<g id="edge3" class="edge">
<title>mu&#45;&gt;Reaction</title>
<path fill="none" stroke="black" d="M93.01,-169.27C93.01,-158.44 93.01,-145.73 93.01,-133.41"/>
<polygon fill="black" stroke="black" points="96.51,-133.78 93.01,-123.78 89.51,-133.78 96.51,-133.78"/>
</g>
</g>
</svg>
