<?xml version="1.0" encoding="UTF-8" standalone="no"?>
<!DOCTYPE svg PUBLIC "-//W3C//DTD SVG 1.1//EN"
 "http://www.w3.org/Graphics/SVG/1.1/DTD/svg11.dtd">
<!-- Generated by graphviz version 11.0.0 (0)
 -->
<!-- Pages: 1 -->
<svg width="517pt" height="385pt"
 viewBox="0.00 0.00 517.25 384.95" xmlns="http://www.w3.org/2000/svg" xmlns:xlink="http://www.w3.org/1999/xlink">
<g id="graph0" class="graph" transform="scale(1 1) rotate(0) translate(4 380.95)">
<polygon fill="white" stroke="none" points="-4,4 -4,-380.95 513.25,-380.95 513.25,4 -4,4"/>
<g id="clust1" class="cluster">
<title>clusterC(Subject)_dim (17)</title>
<path fill="none" stroke="black" d="M210.25,-247.13C210.25,-247.13 315.25,-247.13 315.25,-247.13 321.25,-247.13 327.25,-253.13 327.25,-259.13 327.25,-259.13 327.25,-356.95 327.25,-356.95 327.25,-362.95 321.25,-368.95 315.25,-368.95 315.25,-368.95 210.25,-368.95 210.25,-368.95 204.25,-368.95 198.25,-362.95 198.25,-356.95 198.25,-356.95 198.25,-259.13 198.25,-259.13 198.25,-253.13 204.25,-247.13 210.25,-247.13"/>
<text text-anchor="middle" x="262.63" y="-254.33" font-family="Times,serif" font-size="14.00">C(Subject)_dim (17)</text>
</g>
<g id="clust2" class="cluster">
<title>clusterDays:C(Subject)_dim (17)</title>
<path fill="none" stroke="black" d="M347.25,-247.13C347.25,-247.13 489.25,-247.13 489.25,-247.13 495.25,-247.13 501.25,-253.13 501.25,-259.13 501.25,-259.13 501.25,-356.95 501.25,-356.95 501.25,-362.95 495.25,-368.95 489.25,-368.95 489.25,-368.95 347.25,-368.95 347.25,-368.95 341.25,-368.95 335.25,-362.95 335.25,-356.95 335.25,-356.95 335.25,-259.13 335.25,-259.13 335.25,-253.13 341.25,-247.13 347.25,-247.13"/>
<text text-anchor="middle" x="420.88" y="-254.33" font-family="Times,serif" font-size="14.00">Days:C(Subject)_dim (17)</text>
</g>
<g id="clust3" class="cluster">
<title>cluster__obs__ (144)</title>
<path fill="none" stroke="black" d="M159.25,-8C159.25,-8 241.25,-8 241.25,-8 247.25,-8 253.25,-14 253.25,-20 253.25,-20 253.25,-223.23 253.25,-223.23 253.25,-229.23 247.25,-235.23 241.25,-235.23 241.25,-235.23 159.25,-235.23 159.25,-235.23 153.25,-235.23 147.25,-229.23 147.25,-223.23 147.25,-223.23 147.25,-20 147.25,-20 147.25,-14 153.25,-8 159.25,-8"/>
<text text-anchor="middle" x="205.88" y="-15.2" font-family="Times,serif" font-size="14.00">__obs__ (144)</text>
</g>
<!-- Intercept -->
<g id="node1" class="node">
<title>Intercept</title>
<ellipse fill="none" stroke="black" cx="45.25" cy="-320.29" rx="45.25" ry="40.66"/>
<text text-anchor="middle" x="45.25" y="-331.74" font-family="Times,serif" font-size="14.00">Intercept</text>
<text text-anchor="middle" x="45.25" y="-315.24" font-family="Times,serif" font-size="14.00">~</text>
<text text-anchor="middle" x="45.25" y="-298.74" font-family="Times,serif" font-size="14.00">Normal</text>
</g>
<!-- mu -->
<g id="node7" class="node">
<title>mu</title>
<polygon fill="none" stroke="black" points="245.38,-227.23 155.13,-227.23 155.13,-169.73 245.38,-169.73 245.38,-227.23"/>
<text text-anchor="middle" x="200.25" y="-209.93" font-family="Times,serif" font-size="14.00">mu</text>
<text text-anchor="middle" x="200.25" y="-193.43" font-family="Times,serif" font-size="14.00">~</text>
<text text-anchor="middle" x="200.25" y="-176.93" font-family="Times,serif" font-size="14.00">Deterministic</text>
</g>
<!-- Intercept&#45;&gt;mu -->
<g id="edge2" class="edge">
<title>Intercept&#45;&gt;mu</title>
<path fill="none" stroke="black" d="M66.43,-284.07C75.37,-271.26 86.65,-257.43 99.25,-247.13 112.68,-236.17 129.05,-227.05 144.67,-219.83"/>
<polygon fill="black" stroke="black" points="145.67,-223.21 153.4,-215.96 142.84,-216.81 145.67,-223.21"/>
</g>
<!-- Days -->
<g id="node2" class="node">
<title>Days</title>
<ellipse fill="none" stroke="black" cx="149.25" cy="-320.29" rx="41.01" ry="40.66"/>
<text text-anchor="middle" x="149.25" y="-331.74" font-family="Times,serif" font-size="14.00">Days</text>
<text text-anchor="middle" x="149.25" y="-315.24" font-family="Times,serif" font-size="14.00">~</text>
<text text-anchor="middle" x="149.25" y="-298.74" font-family="Times,serif" font-size="14.00">Normal</text>
</g>
<!-- Days&#45;&gt;mu -->
<g id="edge4" class="edge">
<title>Days&#45;&gt;mu</title>
<path fill="none" stroke="black" d="M164.97,-282.37C170.94,-268.34 177.76,-252.33 183.79,-238.15"/>
<polygon fill="black" stroke="black" points="186.94,-239.68 187.64,-229.11 180.5,-236.94 186.94,-239.68"/>
</g>
<!-- sigma -->
<g id="node3" class="node">
<title>sigma</title>
<ellipse fill="none" stroke="black" cx="326.25" cy="-198.48" rx="63.29" ry="40.66"/>
<text text-anchor="middle" x="326.25" y="-209.93" font-family="Times,serif" font-size="14.00">sigma</text>
<text text-anchor="middle" x="326.25" y="-193.43" font-family="Times,serif" font-size="14.00">~</text>
<text text-anchor="middle" x="326.25" y="-176.93" font-family="Times,serif" font-size="14.00">HalfStudentT</text>
</g>
<!-- Reaction -->
<g id="node6" class="node">
<title>Reaction</title>
<ellipse fill="lightgrey" stroke="black" cx="200.25" cy="-81.16" rx="45.25" ry="40.66"/>
<text text-anchor="middle" x="200.25" y="-92.61" font-family="Times,serif" font-size="14.00">Reaction</text>
<text text-anchor="middle" x="200.25" y="-76.11" font-family="Times,serif" font-size="14.00">~</text>
<text text-anchor="middle" x="200.25" y="-59.61" font-family="Times,serif" font-size="14.00">Normal</text>
</g>
<!-- sigma&#45;&gt;Reaction -->
<g id="edge6" class="edge">
<title>sigma&#45;&gt;Reaction</title>
<path fill="none" stroke="black" d="M290.49,-164.74C274.62,-150.22 255.91,-133.1 239.65,-118.22"/>
<polygon fill="black" stroke="black" points="242.26,-115.86 232.52,-111.69 237.53,-121.02 242.26,-115.86"/>
</g>
<!-- C(Subject) -->
<g id="node4" class="node">
<title>C(Subject)</title>
<ellipse fill="none" stroke="black" cx="261.25" cy="-320.29" rx="52.68" ry="40.66"/>
<text text-anchor="middle" x="261.25" y="-331.74" font-family="Times,serif" font-size="14.00">C(Subject)</text>
<text text-anchor="middle" x="261.25" y="-315.24" font-family="Times,serif" font-size="14.00">~</text>
<text text-anchor="middle" x="261.25" y="-298.74" font-family="Times,serif" font-size="14.00">Normal</text>
</g>
<!-- C(Subject)&#45;&gt;mu -->
<g id="edge3" class="edge">
<title>C(Subject)&#45;&gt;mu</title>
<path fill="none" stroke="black" d="M242.29,-282.04C235.08,-267.89 226.87,-251.76 219.63,-237.53"/>
<polygon fill="black" stroke="black" points="222.9,-236.24 215.24,-228.92 216.66,-239.42 222.9,-236.24"/>
</g>
<!-- Days&amp;C(Subject) -->
<g id="node5" class="node">
<title>Days&amp;C(Subject)</title>
<ellipse fill="none" stroke="black" cx="418.25" cy="-320.29" rx="74.95" ry="40.66"/>
<text text-anchor="middle" x="418.25" y="-331.74" font-family="Times,serif" font-size="14.00">Days:C(Subject)</text>
<text text-anchor="middle" x="418.25" y="-315.24" font-family="Times,serif" font-size="14.00">~</text>
<text text-anchor="middle" x="418.25" y="-298.74" font-family="Times,serif" font-size="14.00">Normal</text>
</g>
<!-- Days&amp;C(Subject)&#45;&gt;mu -->
<g id="edge1" class="edge">
<title>Days&amp;C(Subject)&#45;&gt;mu</title>
<path fill="none" stroke="black" d="M385.06,-283.82C370.01,-270 351.15,-255.5 331.25,-247.13 299.54,-233.8 286.35,-251.53 254.25,-239.13 250.33,-237.62 246.45,-235.74 242.66,-233.64"/>
<polygon fill="black" stroke="black" points="244.55,-230.69 234.2,-228.41 240.87,-236.65 244.55,-230.69"/>
</g>
<!-- mu&#45;&gt;Reaction -->
<g id="edge5" class="edge">
<title>mu&#45;&gt;Reaction</title>
<path fill="none" stroke="black" d="M200.25,-169.27C200.25,-158.44 200.25,-145.73 200.25,-133.41"/>
<polygon fill="black" stroke="black" points="203.75,-133.78 200.25,-123.78 196.75,-133.78 203.75,-133.78"/>
</g>
</g>
</svg>
