<?xml version="1.0" encoding="UTF-8" standalone="no"?>
<!DOCTYPE svg PUBLIC "-//W3C//DTD SVG 1.1//EN"
 "http://www.w3.org/Graphics/SVG/1.1/DTD/svg11.dtd">
<!-- Generated by graphviz version 11.0.0 (0)
 -->
<!-- Pages: 1 -->
<svg width="517pt" height="385pt"
 viewBox="0.00 0.00 517.01 384.95" xmlns="http://www.w3.org/2000/svg" xmlns:xlink="http://www.w3.org/1999/xlink">
<g id="graph0" class="graph" transform="scale(1 1) rotate(0) translate(4 380.95)">
<polygon fill="white" stroke="none" points="-4,4 -4,-380.95 513.01,-380.95 513.01,4 -4,4"/>
<g id="clust1" class="cluster">
<title>clusterC(Subject)_dim (17)</title>
<path fill="none" stroke="black" d="M210.01,-247.13C210.01,-247.13 315.01,-247.13 315.01,-247.13 321.01,-247.13 327.01,-253.13 327.01,-259.13 327.01,-259.13 327.01,-356.95 327.01,-356.95 327.01,-362.95 321.01,-368.95 315.01,-368.95 315.01,-368.95 210.01,-368.95 210.01,-368.95 204.01,-368.95 198.01,-362.95 198.01,-356.95 198.01,-356.95 198.01,-259.13 198.01,-259.13 198.01,-253.13 204.01,-247.13 210.01,-247.13"/>
<text text-anchor="middle" x="262.39" y="-254.33" font-family="Times,serif" font-size="14.00">C(Subject)_dim (17)</text>
</g>
<g id="clust2" class="cluster">
<title>clusterDays:C(Subject)_dim (17)</title>
<path fill="none" stroke="black" d="M347.01,-247.13C347.01,-247.13 489.01,-247.13 489.01,-247.13 495.01,-247.13 501.01,-253.13 501.01,-259.13 501.01,-259.13 501.01,-356.95 501.01,-356.95 501.01,-362.95 495.01,-368.95 489.01,-368.95 489.01,-368.95 347.01,-368.95 347.01,-368.95 341.01,-368.95 335.01,-362.95 335.01,-356.95 335.01,-356.95 335.01,-259.13 335.01,-259.13 335.01,-253.13 341.01,-247.13 347.01,-247.13"/>
<text text-anchor="middle" x="420.64" y="-254.33" font-family="Times,serif" font-size="14.00">Days:C(Subject)_dim (17)</text>
</g>
<g id="clust3" class="cluster">
<title>cluster__obs__ (144)</title>
<path fill="none" stroke="black" d="M157.01,-8C157.01,-8 239.01,-8 239.01,-8 245.01,-8 251.01,-14 251.01,-20 251.01,-20 251.01,-223.23 251.01,-223.23 251.01,-229.23 245.01,-235.23 239.01,-235.23 239.01,-235.23 157.01,-235.23 157.01,-235.23 151.01,-235.23 145.01,-229.23 145.01,-223.23 145.01,-223.23 145.01,-20 145.01,-20 145.01,-14 151.01,-8 157.01,-8"/>
<text text-anchor="middle" x="203.64" y="-15.2" font-family="Times,serif" font-size="14.00">__obs__ (144)</text>
</g>
<!-- Days -->
<g id="node1" class="node">
<title>Days</title>
<ellipse fill="none" stroke="black" cx="41.01" cy="-320.29" rx="41.01" ry="40.66"/>
<text text-anchor="middle" x="41.01" y="-331.74" font-family="Times,serif" font-size="14.00">Days</text>
<text text-anchor="middle" x="41.01" y="-315.24" font-family="Times,serif" font-size="14.00">~</text>
<text text-anchor="middle" x="41.01" y="-298.74" font-family="Times,serif" font-size="14.00">Normal</text>
</g>
<!-- mu -->
<g id="node6" class="node">
<title>mu</title>
<polygon fill="none" stroke="black" points="243.14,-227.23 152.89,-227.23 152.89,-169.73 243.14,-169.73 243.14,-227.23"/>
<text text-anchor="middle" x="198.01" y="-209.93" font-family="Times,serif" font-size="14.00">mu</text>
<text text-anchor="middle" x="198.01" y="-193.43" font-family="Times,serif" font-size="14.00">~</text>
<text text-anchor="middle" x="198.01" y="-176.93" font-family="Times,serif" font-size="14.00">Deterministic</text>
</g>
<!-- Days&#45;&gt;mu -->
<g id="edge2" class="edge">
<title>Days&#45;&gt;mu</title>
<path fill="none" stroke="black" d="M60.05,-283.88C68.27,-271.05 78.81,-257.25 91.01,-247.13 105.86,-234.83 124.39,-225.1 141.83,-217.73"/>
<polygon fill="black" stroke="black" points="143.13,-220.98 151.11,-214.01 140.52,-214.49 143.13,-220.98"/>
</g>
<!-- Intercept -->
<g id="node2" class="node">
<title>Intercept</title>
<ellipse fill="none" stroke="black" cx="145.01" cy="-320.29" rx="45.25" ry="40.66"/>
<text text-anchor="middle" x="145.01" y="-331.74" font-family="Times,serif" font-size="14.00">Intercept</text>
<text text-anchor="middle" x="145.01" y="-315.24" font-family="Times,serif" font-size="14.00">~</text>
<text text-anchor="middle" x="145.01" y="-298.74" font-family="Times,serif" font-size="14.00">Normal</text>
</g>
<!-- Intercept&#45;&gt;mu -->
<g id="edge3" class="edge">
<title>Intercept&#45;&gt;mu</title>
<path fill="none" stroke="black" d="M161.49,-282.04C167.69,-268.02 174.75,-252.07 180.99,-237.95"/>
<polygon fill="black" stroke="black" points="184.13,-239.51 184.97,-228.95 177.73,-236.68 184.13,-239.51"/>
</g>
<!-- sigma -->
<g id="node3" class="node">
<title>sigma</title>
<ellipse fill="none" stroke="black" cx="324.01" cy="-198.48" rx="63.29" ry="40.66"/>
<text text-anchor="middle" x="324.01" y="-209.93" font-family="Times,serif" font-size="14.00">sigma</text>
<text text-anchor="middle" x="324.01" y="-193.43" font-family="Times,serif" font-size="14.00">~</text>
<text text-anchor="middle" x="324.01" y="-176.93" font-family="Times,serif" font-size="14.00">HalfStudentT</text>
</g>
<!-- Reaction -->
<g id="node7" class="node">
<title>Reaction</title>
<ellipse fill="lightgrey" stroke="black" cx="198.01" cy="-81.16" rx="45.25" ry="40.66"/>
<text text-anchor="middle" x="198.01" y="-92.61" font-family="Times,serif" font-size="14.00">Reaction</text>
<text text-anchor="middle" x="198.01" y="-76.11" font-family="Times,serif" font-size="14.00">~</text>
<text text-anchor="middle" x="198.01" y="-59.61" font-family="Times,serif" font-size="14.00">Normal</text>
</g>
<!-- sigma&#45;&gt;Reaction -->
<g id="edge6" class="edge">
<title>sigma&#45;&gt;Reaction</title>
<path fill="none" stroke="black" d="M288.24,-164.74C272.38,-150.22 253.67,-133.1 237.41,-118.22"/>
<polygon fill="black" stroke="black" points="240.01,-115.86 230.27,-111.69 235.29,-121.02 240.01,-115.86"/>
</g>
<!-- C(Subject) -->
<g id="node4" class="node">
<title>C(Subject)</title>
<ellipse fill="none" stroke="black" cx="261.01" cy="-320.29" rx="52.68" ry="40.66"/>
<text text-anchor="middle" x="261.01" y="-331.74" font-family="Times,serif" font-size="14.00">C(Subject)</text>
<text text-anchor="middle" x="261.01" y="-315.24" font-family="Times,serif" font-size="14.00">~</text>
<text text-anchor="middle" x="261.01" y="-298.74" font-family="Times,serif" font-size="14.00">Normal</text>
</g>
<!-- C(Subject)&#45;&gt;mu -->
<g id="edge1" class="edge">
<title>C(Subject)&#45;&gt;mu</title>
<path fill="none" stroke="black" d="M241.42,-282.04C233.98,-267.89 225.5,-251.76 218.02,-237.53"/>
<polygon fill="black" stroke="black" points="221.24,-236.13 213.49,-228.91 215.04,-239.39 221.24,-236.13"/>
</g>
<!-- Days&amp;C(Subject) -->
<g id="node5" class="node">
<title>Days&amp;C(Subject)</title>
<ellipse fill="none" stroke="black" cx="418.01" cy="-320.29" rx="74.95" ry="40.66"/>
<text text-anchor="middle" x="418.01" y="-331.74" font-family="Times,serif" font-size="14.00">Days:C(Subject)</text>
<text text-anchor="middle" x="418.01" y="-315.24" font-family="Times,serif" font-size="14.00">~</text>
<text text-anchor="middle" x="418.01" y="-298.74" font-family="Times,serif" font-size="14.00">Normal</text>
</g>
<!-- Days&amp;C(Subject)&#45;&gt;mu -->
<g id="edge4" class="edge">
<title>Days&amp;C(Subject)&#45;&gt;mu</title>
<path fill="none" stroke="black" d="M384.82,-283.79C369.78,-269.97 350.92,-255.47 331.01,-247.13 298.46,-233.5 284.95,-251.8 252.01,-239.13 248.09,-237.63 244.2,-235.75 240.41,-233.65"/>
<polygon fill="black" stroke="black" points="242.3,-230.7 231.95,-228.43 238.62,-236.66 242.3,-230.7"/>
</g>
<!-- mu&#45;&gt;Reaction -->
<g id="edge5" class="edge">
<title>mu&#45;&gt;Reaction</title>
<path fill="none" stroke="black" d="M198.01,-169.27C198.01,-158.44 198.01,-145.73 198.01,-133.41"/>
<polygon fill="black" stroke="black" points="201.51,-133.78 198.01,-123.78 194.51,-133.78 201.51,-133.78"/>
</g>
</g>
</svg>
