<?xml version="1.0" encoding="UTF-8" standalone="no"?>
<!DOCTYPE svg PUBLIC "-//W3C//DTD SVG 1.1//EN"
 "http://www.w3.org/Graphics/SVG/1.1/DTD/svg11.dtd">
<!-- Generated by graphviz version 11.0.0 (0)
 -->
<!-- Pages: 1 -->
<svg width="753pt" height="498pt"
 viewBox="0.00 0.00 753.06 497.77" xmlns="http://www.w3.org/2000/svg" xmlns:xlink="http://www.w3.org/1999/xlink">
<g id="graph0" class="graph" transform="scale(1 1) rotate(0) translate(4 493.77)">
<polygon fill="white" stroke="none" points="-4,4 -4,-493.77 749.06,-493.77 749.06,4 -4,4"/>
<g id="clust1" class="cluster">
<title>clusterSubject__factor_dim (18)</title>
<path fill="none" stroke="black" d="M201.8,-254.54C201.8,-254.54 534.8,-254.54 534.8,-254.54 540.8,-254.54 546.8,-260.54 546.8,-266.54 546.8,-266.54 546.8,-469.77 546.8,-469.77 546.8,-475.77 540.8,-481.77 534.8,-481.77 534.8,-481.77 201.8,-481.77 201.8,-481.77 195.8,-481.77 189.8,-475.77 189.8,-469.77 189.8,-469.77 189.8,-266.54 189.8,-266.54 189.8,-260.54 195.8,-254.54 201.8,-254.54"/>
<text text-anchor="middle" x="468.68" y="-261.74" font-family="Times,serif" font-size="14.00">Subject__factor_dim (18)</text>
</g>
<g id="clust2" class="cluster">
<title>cluster__obs__ (144)</title>
<path fill="none" stroke="black" d="M451.8,-8C451.8,-8 533.8,-8 533.8,-8 539.8,-8 545.8,-14 545.8,-20 545.8,-20 545.8,-223.23 545.8,-223.23 545.8,-229.23 539.8,-235.23 533.8,-235.23 533.8,-235.23 451.8,-235.23 451.8,-235.23 445.8,-235.23 439.8,-229.23 439.8,-223.23 439.8,-223.23 439.8,-20 439.8,-20 439.8,-14 445.8,-8 451.8,-8"/>
<text text-anchor="middle" x="498.43" y="-15.2" font-family="Times,serif" font-size="14.00">__obs__ (144)</text>
</g>
<!-- Days|Subject_sigma -->
<g id="node1" class="node">
<title>Days|Subject_sigma</title>
<ellipse fill="none" stroke="black" cx="89.8" cy="-433.11" rx="89.8" ry="40.66"/>
<text text-anchor="middle" x="89.8" y="-444.56" font-family="Times,serif" font-size="14.00">Days|Subject_sigma</text>
<text text-anchor="middle" x="89.8" y="-428.06" font-family="Times,serif" font-size="14.00">~</text>
<text text-anchor="middle" x="89.8" y="-411.56" font-family="Times,serif" font-size="14.00">HalfNormal</text>
</g>
<!-- Days|Subject -->
<g id="node9" class="node">
<title>Days|Subject</title>
<polygon fill="none" stroke="black" points="330.93,-344.54 240.68,-344.54 240.68,-287.04 330.93,-287.04 330.93,-344.54"/>
<text text-anchor="middle" x="285.8" y="-327.24" font-family="Times,serif" font-size="14.00">Days|Subject</text>
<text text-anchor="middle" x="285.8" y="-310.74" font-family="Times,serif" font-size="14.00">~</text>
<text text-anchor="middle" x="285.8" y="-294.24" font-family="Times,serif" font-size="14.00">Deterministic</text>
</g>
<!-- Days|Subject_sigma&#45;&gt;Days|Subject -->
<g id="edge3" class="edge">
<title>Days|Subject_sigma&#45;&gt;Days|Subject</title>
<path fill="none" stroke="black" d="M143.88,-400.29C170.82,-384.44 203.35,-365.3 230.47,-349.35"/>
<polygon fill="black" stroke="black" points="232.05,-352.48 238.89,-344.39 228.5,-346.45 232.05,-352.48"/>
</g>
<!-- Days -->
<g id="node2" class="node">
<title>Days</title>
<ellipse fill="none" stroke="black" cx="595.8" cy="-315.79" rx="41.01" ry="40.66"/>
<text text-anchor="middle" x="595.8" y="-327.24" font-family="Times,serif" font-size="14.00">Days</text>
<text text-anchor="middle" x="595.8" y="-310.74" font-family="Times,serif" font-size="14.00">~</text>
<text text-anchor="middle" x="595.8" y="-294.24" font-family="Times,serif" font-size="14.00">Normal</text>
</g>
<!-- mu -->
<g id="node11" class="node">
<title>mu</title>
<polygon fill="none" stroke="black" points="537.93,-227.23 447.68,-227.23 447.68,-169.73 537.93,-169.73 537.93,-227.23"/>
<text text-anchor="middle" x="492.8" y="-209.93" font-family="Times,serif" font-size="14.00">mu</text>
<text text-anchor="middle" x="492.8" y="-193.43" font-family="Times,serif" font-size="14.00">~</text>
<text text-anchor="middle" x="492.8" y="-176.93" font-family="Times,serif" font-size="14.00">Deterministic</text>
</g>
<!-- Days&#45;&gt;mu -->
<g id="edge8" class="edge">
<title>Days&#45;&gt;mu</title>
<path fill="none" stroke="black" d="M572.73,-281.79C565.96,-272.71 558.35,-263.03 550.8,-254.54 545.1,-248.12 538.76,-241.59 532.43,-235.37"/>
<polygon fill="black" stroke="black" points="535.19,-233.16 525.56,-228.74 530.33,-238.2 535.19,-233.16"/>
</g>
<!-- 1|Subject_sigma -->
<g id="node3" class="node">
<title>1|Subject_sigma</title>
<ellipse fill="none" stroke="black" cx="631.8" cy="-433.11" rx="74.95" ry="40.66"/>
<text text-anchor="middle" x="631.8" y="-444.56" font-family="Times,serif" font-size="14.00">1|Subject_sigma</text>
<text text-anchor="middle" x="631.8" y="-428.06" font-family="Times,serif" font-size="14.00">~</text>
<text text-anchor="middle" x="631.8" y="-411.56" font-family="Times,serif" font-size="14.00">HalfNormal</text>
</g>
<!-- 1|Subject -->
<g id="node6" class="node">
<title>1|Subject</title>
<polygon fill="none" stroke="black" points="536.93,-344.54 446.68,-344.54 446.68,-287.04 536.93,-287.04 536.93,-344.54"/>
<text text-anchor="middle" x="491.8" y="-327.24" font-family="Times,serif" font-size="14.00">1|Subject</text>
<text text-anchor="middle" x="491.8" y="-310.74" font-family="Times,serif" font-size="14.00">~</text>
<text text-anchor="middle" x="491.8" y="-294.24" font-family="Times,serif" font-size="14.00">Deterministic</text>
</g>
<!-- 1|Subject_sigma&#45;&gt;1|Subject -->
<g id="edge2" class="edge">
<title>1|Subject_sigma&#45;&gt;1|Subject</title>
<path fill="none" stroke="black" d="M591.31,-398.76C573.54,-384.12 552.67,-366.93 534.65,-352.08"/>
<polygon fill="black" stroke="black" points="537.16,-349.62 527.22,-345.97 532.71,-355.02 537.16,-349.62"/>
</g>
<!-- Intercept -->
<g id="node4" class="node">
<title>Intercept</title>
<ellipse fill="none" stroke="black" cx="699.8" cy="-315.79" rx="45.25" ry="40.66"/>
<text text-anchor="middle" x="699.8" y="-327.24" font-family="Times,serif" font-size="14.00">Intercept</text>
<text text-anchor="middle" x="699.8" y="-310.74" font-family="Times,serif" font-size="14.00">~</text>
<text text-anchor="middle" x="699.8" y="-294.24" font-family="Times,serif" font-size="14.00">Normal</text>
</g>
<!-- Intercept&#45;&gt;mu -->
<g id="edge6" class="edge">
<title>Intercept&#45;&gt;mu</title>
<path fill="none" stroke="black" d="M676.24,-280.51C667.77,-270.64 657.41,-260.84 645.8,-254.54 606.66,-233.3 587.92,-256.23 546.8,-239.13 543.15,-237.62 539.51,-235.8 535.95,-233.79"/>
<polygon fill="black" stroke="black" points="537.8,-230.82 527.46,-228.52 534.1,-236.77 537.8,-230.82"/>
</g>
<!-- sigma -->
<g id="node5" class="node">
<title>sigma</title>
<ellipse fill="none" stroke="black" cx="618.8" cy="-198.48" rx="63.29" ry="40.66"/>
<text text-anchor="middle" x="618.8" y="-209.93" font-family="Times,serif" font-size="14.00">sigma</text>
<text text-anchor="middle" x="618.8" y="-193.43" font-family="Times,serif" font-size="14.00">~</text>
<text text-anchor="middle" x="618.8" y="-176.93" font-family="Times,serif" font-size="14.00">HalfStudentT</text>
</g>
<!-- Reaction -->
<g id="node10" class="node">
<title>Reaction</title>
<ellipse fill="lightgrey" stroke="black" cx="492.8" cy="-81.16" rx="45.25" ry="40.66"/>
<text text-anchor="middle" x="492.8" y="-92.61" font-family="Times,serif" font-size="14.00">Reaction</text>
<text text-anchor="middle" x="492.8" y="-76.11" font-family="Times,serif" font-size="14.00">~</text>
<text text-anchor="middle" x="492.8" y="-59.61" font-family="Times,serif" font-size="14.00">Normal</text>
</g>
<!-- sigma&#45;&gt;Reaction -->
<g id="edge10" class="edge">
<title>sigma&#45;&gt;Reaction</title>
<path fill="none" stroke="black" d="M583.03,-164.74C567.17,-150.22 548.46,-133.1 532.2,-118.22"/>
<polygon fill="black" stroke="black" points="534.81,-115.86 525.07,-111.69 530.08,-121.02 534.81,-115.86"/>
</g>
<!-- 1|Subject&#45;&gt;mu -->
<g id="edge5" class="edge">
<title>1|Subject&#45;&gt;mu</title>
<path fill="none" stroke="black" d="M492.05,-286.58C492.17,-272.24 492.32,-254.57 492.46,-238.9"/>
<polygon fill="black" stroke="black" points="495.96,-238.94 492.55,-228.91 488.96,-238.88 495.96,-238.94"/>
</g>
<!-- Days|Subject_offset -->
<g id="node7" class="node">
<title>Days|Subject_offset</title>
<ellipse fill="none" stroke="black" cx="285.8" cy="-433.11" rx="88.21" ry="40.66"/>
<text text-anchor="middle" x="285.8" y="-444.56" font-family="Times,serif" font-size="14.00">Days|Subject_offset</text>
<text text-anchor="middle" x="285.8" y="-428.06" font-family="Times,serif" font-size="14.00">~</text>
<text text-anchor="middle" x="285.8" y="-411.56" font-family="Times,serif" font-size="14.00">Normal</text>
</g>
<!-- Days|Subject_offset&#45;&gt;Days|Subject -->
<g id="edge4" class="edge">
<title>Days|Subject_offset&#45;&gt;Days|Subject</title>
<path fill="none" stroke="black" d="M285.8,-392.1C285.8,-380.39 285.8,-367.61 285.8,-355.95"/>
<polygon fill="black" stroke="black" points="289.3,-356.27 285.8,-346.27 282.3,-356.27 289.3,-356.27"/>
</g>
<!-- 1|Subject_offset -->
<g id="node8" class="node">
<title>1|Subject_offset</title>
<ellipse fill="none" stroke="black" cx="465.8" cy="-433.11" rx="73.36" ry="40.66"/>
<text text-anchor="middle" x="465.8" y="-444.56" font-family="Times,serif" font-size="14.00">1|Subject_offset</text>
<text text-anchor="middle" x="465.8" y="-428.06" font-family="Times,serif" font-size="14.00">~</text>
<text text-anchor="middle" x="465.8" y="-411.56" font-family="Times,serif" font-size="14.00">Normal</text>
</g>
<!-- 1|Subject_offset&#45;&gt;1|Subject -->
<g id="edge1" class="edge">
<title>1|Subject_offset&#45;&gt;1|Subject</title>
<path fill="none" stroke="black" d="M474.75,-392.42C477.42,-380.58 480.35,-367.6 483.01,-355.8"/>
<polygon fill="black" stroke="black" points="486.34,-356.91 485.13,-346.39 479.52,-355.37 486.34,-356.91"/>
</g>
<!-- Days|Subject&#45;&gt;mu -->
<g id="edge7" class="edge">
<title>Days|Subject&#45;&gt;mu</title>
<path fill="none" stroke="black" d="M331.23,-289.49C362.51,-272.06 404.25,-248.81 437.47,-230.3"/>
<polygon fill="black" stroke="black" points="439.13,-233.38 446.16,-225.46 435.72,-227.27 439.13,-233.38"/>
</g>
<!-- mu&#45;&gt;Reaction -->
<g id="edge9" class="edge">
<title>mu&#45;&gt;Reaction</title>
<path fill="none" stroke="black" d="M492.8,-169.27C492.8,-158.44 492.8,-145.73 492.8,-133.41"/>
<polygon fill="black" stroke="black" points="496.3,-133.78 492.8,-123.78 489.3,-133.78 496.3,-133.78"/>
</g>
</g>
</svg>
