<?xml version="1.0" encoding="UTF-8" standalone="no"?>
<!DOCTYPE svg PUBLIC "-//W3C//DTD SVG 1.1//EN"
 "http://www.w3.org/Graphics/SVG/1.1/DTD/svg11.dtd">
<!-- Generated by graphviz version 11.0.0 (0)
 -->
<!-- Pages: 1 -->
<svg width="134pt" height="188pt"
 viewBox="0.00 0.00 134.00 188.00" xmlns="http://www.w3.org/2000/svg" xmlns:xlink="http://www.w3.org/1999/xlink">
<g id="graph0" class="graph" transform="scale(1 1) rotate(0) translate(4 184)">
<polygon fill="white" stroke="none" points="-4,4 -4,-184 130,-184 130,4 -4,4"/>
<!-- X -->
<g id="node1" class="node">
<title>X</title>
<text text-anchor="middle" x="27" y="-156.95" font-family="Times,serif" font-size="14.00">X</text>
</g>
<!-- Z -->
<g id="node3" class="node">
<title>Z</title>
<text text-anchor="middle" x="63" y="-84.95" font-family="Times,serif" font-size="14.00">Z</text>
</g>
<!-- X&#45;&gt;Z -->
<g id="edge1" class="edge">
<title>X&#45;&gt;Z</title>
<path fill="none" stroke="black" d="M35.71,-144.05C39.74,-136.23 44.62,-126.75 49.13,-117.98"/>
<polygon fill="black" stroke="black" points="52.21,-119.63 53.67,-109.13 45.99,-116.43 52.21,-119.63"/>
</g>
<!-- Y -->
<g id="node2" class="node">
<title>Y</title>
<text text-anchor="middle" x="99" y="-156.95" font-family="Times,serif" font-size="14.00">Y</text>
</g>
<!-- Y&#45;&gt;Z -->
<g id="edge2" class="edge">
<title>Y&#45;&gt;Z</title>
<path fill="none" stroke="black" d="M90.29,-144.05C86.26,-136.23 81.38,-126.75 76.87,-117.98"/>
<polygon fill="black" stroke="black" points="80.01,-116.43 72.33,-109.13 73.79,-119.63 80.01,-116.43"/>
</g>
<!-- D -->
<g id="node4" class="node">
<title>D</title>
<text text-anchor="middle" x="63" y="-12.95" font-family="Times,serif" font-size="14.00">D</text>
</g>
<!-- Z&#45;&gt;D -->
<g id="edge3" class="edge">
<title>Z&#45;&gt;D</title>
<path fill="none" stroke="black" d="M63,-72.05C63,-64.57 63,-55.58 63,-47.14"/>
<polygon fill="black" stroke="black" points="66.5,-47.3 63,-37.3 59.5,-47.3 66.5,-47.3"/>
</g>
</g>
</svg>
