<?xml version="1.0" encoding="UTF-8" standalone="no"?>
<!DOCTYPE svg PUBLIC "-//W3C//DTD SVG 1.1//EN"
 "http://www.w3.org/Graphics/SVG/1.1/DTD/svg11.dtd">
<!-- Generated by graphviz version 11.0.0 (0)
 -->
<!-- Pages: 1 -->
<svg width="921pt" height="498pt"
 viewBox="0.00 0.00 920.81 497.77" xmlns="http://www.w3.org/2000/svg" xmlns:xlink="http://www.w3.org/1999/xlink">
<g id="graph0" class="graph" transform="scale(1 1) rotate(0) translate(4 493.77)">
<polygon fill="white" stroke="none" points="-4,4 -4,-493.77 916.81,-493.77 916.81,4 -4,4"/>
<g id="clust1" class="cluster">
<title>clusterSubject__factor_dim (18)</title>
<path fill="none" stroke="black" d="M210.01,-254.54C210.01,-254.54 543.01,-254.54 543.01,-254.54 549.01,-254.54 555.01,-260.54 555.01,-266.54 555.01,-266.54 555.01,-469.77 555.01,-469.77 555.01,-475.77 549.01,-481.77 543.01,-481.77 543.01,-481.77 210.01,-481.77 210.01,-481.77 204.01,-481.77 198.01,-475.77 198.01,-469.77 198.01,-469.77 198.01,-266.54 198.01,-266.54 198.01,-260.54 204.01,-254.54 210.01,-254.54"/>
<text text-anchor="middle" x="476.89" y="-261.74" font-family="Times,serif" font-size="14.00">Subject__factor_dim (18)</text>
</g>
<g id="clust2" class="cluster">
<title>cluster__obs__ (144)</title>
<path fill="none" stroke="black" d="M157.01,-8C157.01,-8 239.01,-8 239.01,-8 245.01,-8 251.01,-14 251.01,-20 251.01,-20 251.01,-223.23 251.01,-223.23 251.01,-229.23 245.01,-235.23 239.01,-235.23 239.01,-235.23 157.01,-235.23 157.01,-235.23 151.01,-235.23 145.01,-229.23 145.01,-223.23 145.01,-223.23 145.01,-20 145.01,-20 145.01,-14 151.01,-8 157.01,-8"/>
<text text-anchor="middle" x="203.64" y="-15.2" font-family="Times,serif" font-size="14.00">__obs__ (144)</text>
</g>
<!-- Days -->
<g id="node1" class="node">
<title>Days</title>
<ellipse fill="none" stroke="black" cx="41.01" cy="-315.79" rx="41.01" ry="40.66"/>
<text text-anchor="middle" x="41.01" y="-327.24" font-family="Times,serif" font-size="14.00">Days</text>
<text text-anchor="middle" x="41.01" y="-310.74" font-family="Times,serif" font-size="14.00">~</text>
<text text-anchor="middle" x="41.01" y="-294.24" font-family="Times,serif" font-size="14.00">Normal</text>
</g>
<!-- mu -->
<g id="node11" class="node">
<title>mu</title>
<polygon fill="none" stroke="black" points="243.14,-227.23 152.89,-227.23 152.89,-169.73 243.14,-169.73 243.14,-227.23"/>
<text text-anchor="middle" x="198.01" y="-209.93" font-family="Times,serif" font-size="14.00">mu</text>
<text text-anchor="middle" x="198.01" y="-193.43" font-family="Times,serif" font-size="14.00">~</text>
<text text-anchor="middle" x="198.01" y="-176.93" font-family="Times,serif" font-size="14.00">Deterministic</text>
</g>
<!-- Days&#45;&gt;mu -->
<g id="edge8" class="edge">
<title>Days&#45;&gt;mu</title>
<path fill="none" stroke="black" d="M64.28,-281.94C72.06,-272.36 81.26,-262.37 91.01,-254.54 106.47,-242.13 125.16,-231.35 142.58,-222.71"/>
<polygon fill="black" stroke="black" points="143.79,-226.01 151.28,-218.52 140.75,-219.7 143.79,-226.01"/>
</g>
<!-- Intercept -->
<g id="node2" class="node">
<title>Intercept</title>
<ellipse fill="none" stroke="black" cx="145.01" cy="-315.79" rx="45.25" ry="40.66"/>
<text text-anchor="middle" x="145.01" y="-327.24" font-family="Times,serif" font-size="14.00">Intercept</text>
<text text-anchor="middle" x="145.01" y="-310.74" font-family="Times,serif" font-size="14.00">~</text>
<text text-anchor="middle" x="145.01" y="-294.24" font-family="Times,serif" font-size="14.00">Normal</text>
</g>
<!-- Intercept&#45;&gt;mu -->
<g id="edge6" class="edge">
<title>Intercept&#45;&gt;mu</title>
<path fill="none" stroke="black" d="M162.07,-277.67C167.94,-264.91 174.51,-250.61 180.41,-237.77"/>
<polygon fill="black" stroke="black" points="183.56,-239.3 184.55,-228.76 177.2,-236.38 183.56,-239.3"/>
</g>
<!-- 1|Subject_sigma -->
<g id="node3" class="node">
<title>1|Subject_sigma</title>
<ellipse fill="none" stroke="black" cx="640.01" cy="-433.11" rx="74.95" ry="40.66"/>
<text text-anchor="middle" x="640.01" y="-444.56" font-family="Times,serif" font-size="14.00">1|Subject_sigma</text>
<text text-anchor="middle" x="640.01" y="-428.06" font-family="Times,serif" font-size="14.00">~</text>
<text text-anchor="middle" x="640.01" y="-411.56" font-family="Times,serif" font-size="14.00">HalfNormal</text>
</g>
<!-- 1|Subject -->
<g id="node7" class="node">
<title>1|Subject</title>
<polygon fill="none" stroke="black" points="324.14,-344.54 233.89,-344.54 233.89,-287.04 324.14,-287.04 324.14,-344.54"/>
<text text-anchor="middle" x="279.01" y="-327.24" font-family="Times,serif" font-size="14.00">1|Subject</text>
<text text-anchor="middle" x="279.01" y="-310.74" font-family="Times,serif" font-size="14.00">~</text>
<text text-anchor="middle" x="279.01" y="-294.24" font-family="Times,serif" font-size="14.00">Deterministic</text>
</g>
<!-- 1|Subject_sigma&#45;&gt;1|Subject -->
<g id="edge2" class="edge">
<title>1|Subject_sigma&#45;&gt;1|Subject</title>
<path fill="none" stroke="black" d="M587.16,-404.12C577.93,-399.85 568.3,-395.76 559.01,-392.45 492.8,-368.85 472.81,-375.02 405.01,-356.45 382.02,-350.16 356.93,-342.44 335.23,-335.48"/>
<polygon fill="black" stroke="black" points="336.58,-332.24 325.99,-332.5 334.43,-338.9 336.58,-332.24"/>
</g>
<!-- Days|Subject_sigma -->
<g id="node4" class="node">
<title>Days|Subject_sigma</title>
<ellipse fill="none" stroke="black" cx="823.01" cy="-433.11" rx="89.8" ry="40.66"/>
<text text-anchor="middle" x="823.01" y="-444.56" font-family="Times,serif" font-size="14.00">Days|Subject_sigma</text>
<text text-anchor="middle" x="823.01" y="-428.06" font-family="Times,serif" font-size="14.00">~</text>
<text text-anchor="middle" x="823.01" y="-411.56" font-family="Times,serif" font-size="14.00">HalfNormal</text>
</g>
<!-- Days|Subject -->
<g id="node6" class="node">
<title>Days|Subject</title>
<polygon fill="none" stroke="black" points="504.14,-344.54 413.89,-344.54 413.89,-287.04 504.14,-287.04 504.14,-344.54"/>
<text text-anchor="middle" x="459.01" y="-327.24" font-family="Times,serif" font-size="14.00">Days|Subject</text>
<text text-anchor="middle" x="459.01" y="-310.74" font-family="Times,serif" font-size="14.00">~</text>
<text text-anchor="middle" x="459.01" y="-294.24" font-family="Times,serif" font-size="14.00">Deterministic</text>
</g>
<!-- Days|Subject_sigma&#45;&gt;Days|Subject -->
<g id="edge3" class="edge">
<title>Days|Subject_sigma&#45;&gt;Days|Subject</title>
<path fill="none" stroke="black" d="M757.6,-404.81C746.47,-400.48 734.96,-396.2 724.01,-392.45 653.01,-368.17 569.54,-345.24 515.53,-331.12"/>
<polygon fill="black" stroke="black" points="516.49,-327.76 505.93,-328.63 514.73,-334.53 516.49,-327.76"/>
</g>
<!-- sigma -->
<g id="node5" class="node">
<title>sigma</title>
<ellipse fill="none" stroke="black" cx="324.01" cy="-198.48" rx="63.29" ry="40.66"/>
<text text-anchor="middle" x="324.01" y="-209.93" font-family="Times,serif" font-size="14.00">sigma</text>
<text text-anchor="middle" x="324.01" y="-193.43" font-family="Times,serif" font-size="14.00">~</text>
<text text-anchor="middle" x="324.01" y="-176.93" font-family="Times,serif" font-size="14.00">HalfStudentT</text>
</g>
<!-- Reaction -->
<g id="node10" class="node">
<title>Reaction</title>
<ellipse fill="lightgrey" stroke="black" cx="198.01" cy="-81.16" rx="45.25" ry="40.66"/>
<text text-anchor="middle" x="198.01" y="-92.61" font-family="Times,serif" font-size="14.00">Reaction</text>
<text text-anchor="middle" x="198.01" y="-76.11" font-family="Times,serif" font-size="14.00">~</text>
<text text-anchor="middle" x="198.01" y="-59.61" font-family="Times,serif" font-size="14.00">Normal</text>
</g>
<!-- sigma&#45;&gt;Reaction -->
<g id="edge10" class="edge">
<title>sigma&#45;&gt;Reaction</title>
<path fill="none" stroke="black" d="M288.24,-164.74C272.38,-150.22 253.67,-133.1 237.41,-118.22"/>
<polygon fill="black" stroke="black" points="240.01,-115.86 230.27,-111.69 235.29,-121.02 240.01,-115.86"/>
</g>
<!-- Days|Subject&#45;&gt;mu -->
<g id="edge5" class="edge">
<title>Days|Subject&#45;&gt;mu</title>
<path fill="none" stroke="black" d="M413.52,-289.53C390.07,-277.42 360.66,-263.61 333.01,-254.54 298.19,-243.12 285.61,-253.77 252.01,-239.13 248.44,-237.58 244.87,-235.75 241.38,-233.75"/>
<polygon fill="black" stroke="black" points="243.38,-230.87 233.04,-228.52 239.66,-236.8 243.38,-230.87"/>
</g>
<!-- 1|Subject&#45;&gt;mu -->
<g id="edge7" class="edge">
<title>1|Subject&#45;&gt;mu</title>
<path fill="none" stroke="black" d="M259.2,-286.58C248.63,-271.53 235.49,-252.83 224.09,-236.61"/>
<polygon fill="black" stroke="black" points="227.1,-234.8 218.49,-228.63 221.38,-238.83 227.1,-234.8"/>
</g>
<!-- 1|Subject_offset -->
<g id="node8" class="node">
<title>1|Subject_offset</title>
<ellipse fill="none" stroke="black" cx="279.01" cy="-433.11" rx="73.36" ry="40.66"/>
<text text-anchor="middle" x="279.01" y="-444.56" font-family="Times,serif" font-size="14.00">1|Subject_offset</text>
<text text-anchor="middle" x="279.01" y="-428.06" font-family="Times,serif" font-size="14.00">~</text>
<text text-anchor="middle" x="279.01" y="-411.56" font-family="Times,serif" font-size="14.00">Normal</text>
</g>
<!-- 1|Subject_offset&#45;&gt;1|Subject -->
<g id="edge1" class="edge">
<title>1|Subject_offset&#45;&gt;1|Subject</title>
<path fill="none" stroke="black" d="M279.01,-392.1C279.01,-380.39 279.01,-367.61 279.01,-355.95"/>
<polygon fill="black" stroke="black" points="282.51,-356.27 279.01,-346.27 275.51,-356.27 282.51,-356.27"/>
</g>
<!-- Days|Subject_offset -->
<g id="node9" class="node">
<title>Days|Subject_offset</title>
<ellipse fill="none" stroke="black" cx="459.01" cy="-433.11" rx="88.21" ry="40.66"/>
<text text-anchor="middle" x="459.01" y="-444.56" font-family="Times,serif" font-size="14.00">Days|Subject_offset</text>
<text text-anchor="middle" x="459.01" y="-428.06" font-family="Times,serif" font-size="14.00">~</text>
<text text-anchor="middle" x="459.01" y="-411.56" font-family="Times,serif" font-size="14.00">Normal</text>
</g>
<!-- Days|Subject_offset&#45;&gt;Days|Subject -->
<g id="edge4" class="edge">
<title>Days|Subject_offset&#45;&gt;Days|Subject</title>
<path fill="none" stroke="black" d="M459.01,-392.1C459.01,-380.39 459.01,-367.61 459.01,-355.95"/>
<polygon fill="black" stroke="black" points="462.51,-356.27 459.01,-346.27 455.51,-356.27 462.51,-356.27"/>
</g>
<!-- mu&#45;&gt;Reaction -->
<g id="edge9" class="edge">
<title>mu&#45;&gt;Reaction</title>
<path fill="none" stroke="black" d="M198.01,-169.27C198.01,-158.44 198.01,-145.73 198.01,-133.41"/>
<polygon fill="black" stroke="black" points="201.51,-133.78 198.01,-123.78 194.51,-133.78 201.51,-133.78"/>
</g>
</g>
</svg>
