<?xml version="1.0" encoding="UTF-8" standalone="no"?>
<!DOCTYPE svg PUBLIC "-//W3C//DTD SVG 1.1//EN"
 "http://www.w3.org/Graphics/SVG/1.1/DTD/svg11.dtd">
<!-- Generated by graphviz version 11.0.0 (0)
 -->
<!-- Pages: 1 -->
<svg width="295pt" height="364pt"
 viewBox="0.00 0.00 294.54 364.45" xmlns="http://www.w3.org/2000/svg" xmlns:xlink="http://www.w3.org/1999/xlink">
<g id="graph0" class="graph" transform="scale(1 1) rotate(0) translate(4 360.45)">
<polygon fill="white" stroke="none" points="-4,4 -4,-360.45 290.54,-360.45 290.54,4 -4,4"/>
<g id="clust1" class="cluster">
<title>cluster__obs__ (103)</title>
<path fill="none" stroke="black" d="M56.25,-8C56.25,-8 138.25,-8 138.25,-8 144.25,-8 150.25,-14 150.25,-20 150.25,-20 150.25,-223.23 150.25,-223.23 150.25,-229.23 144.25,-235.23 138.25,-235.23 138.25,-235.23 56.25,-235.23 56.25,-235.23 50.25,-235.23 44.25,-229.23 44.25,-223.23 44.25,-223.23 44.25,-20 44.25,-20 44.25,-14 50.25,-8 56.25,-8"/>
<text text-anchor="middle" x="102.88" y="-15.2" font-family="Times,serif" font-size="14.00">__obs__ (103)</text>
</g>
<!-- Intercept -->
<g id="node1" class="node">
<title>Intercept</title>
<ellipse fill="none" stroke="black" cx="45.25" cy="-315.79" rx="45.25" ry="40.66"/>
<text text-anchor="middle" x="45.25" y="-327.24" font-family="Times,serif" font-size="14.00">Intercept</text>
<text text-anchor="middle" x="45.25" y="-310.74" font-family="Times,serif" font-size="14.00">~</text>
<text text-anchor="middle" x="45.25" y="-294.24" font-family="Times,serif" font-size="14.00">Normal</text>
</g>
<!-- mu -->
<g id="node4" class="node">
<title>mu</title>
<polygon fill="none" stroke="black" points="142.38,-227.23 52.13,-227.23 52.13,-169.73 142.38,-169.73 142.38,-227.23"/>
<text text-anchor="middle" x="97.25" y="-209.93" font-family="Times,serif" font-size="14.00">mu</text>
<text text-anchor="middle" x="97.25" y="-193.43" font-family="Times,serif" font-size="14.00">~</text>
<text text-anchor="middle" x="97.25" y="-176.93" font-family="Times,serif" font-size="14.00">Deterministic</text>
</g>
<!-- Intercept&#45;&gt;mu -->
<g id="edge1" class="edge">
<title>Intercept&#45;&gt;mu</title>
<path fill="none" stroke="black" d="M61.99,-277.67C67.75,-264.91 74.19,-250.61 79.99,-237.77"/>
<polygon fill="black" stroke="black" points="83.13,-239.32 84.05,-228.76 76.75,-236.44 83.13,-239.32"/>
</g>
<!-- x -->
<g id="node2" class="node">
<title>x</title>
<ellipse fill="none" stroke="black" cx="149.25" cy="-315.79" rx="41.01" ry="40.66"/>
<text text-anchor="middle" x="149.25" y="-327.24" font-family="Times,serif" font-size="14.00">x</text>
<text text-anchor="middle" x="149.25" y="-310.74" font-family="Times,serif" font-size="14.00">~</text>
<text text-anchor="middle" x="149.25" y="-294.24" font-family="Times,serif" font-size="14.00">Normal</text>
</g>
<!-- x&#45;&gt;mu -->
<g id="edge2" class="edge">
<title>x&#45;&gt;mu</title>
<path fill="none" stroke="black" d="M132.8,-278.31C127.04,-265.52 120.54,-251.12 114.7,-238.17"/>
<polygon fill="black" stroke="black" points="117.9,-236.74 110.6,-229.07 111.52,-239.62 117.9,-236.74"/>
</g>
<!-- sigma -->
<g id="node3" class="node">
<title>sigma</title>
<ellipse fill="none" stroke="black" cx="223.25" cy="-198.48" rx="63.29" ry="40.66"/>
<text text-anchor="middle" x="223.25" y="-209.93" font-family="Times,serif" font-size="14.00">sigma</text>
<text text-anchor="middle" x="223.25" y="-193.43" font-family="Times,serif" font-size="14.00">~</text>
<text text-anchor="middle" x="223.25" y="-176.93" font-family="Times,serif" font-size="14.00">HalfStudentT</text>
</g>
<!-- y -->
<g id="node5" class="node">
<title>y</title>
<ellipse fill="lightgrey" stroke="black" cx="99.25" cy="-81.16" rx="41.01" ry="40.66"/>
<text text-anchor="middle" x="99.25" y="-92.61" font-family="Times,serif" font-size="14.00">y</text>
<text text-anchor="middle" x="99.25" y="-76.11" font-family="Times,serif" font-size="14.00">~</text>
<text text-anchor="middle" x="99.25" y="-59.61" font-family="Times,serif" font-size="14.00">Normal</text>
</g>
<!-- sigma&#45;&gt;y -->
<g id="edge4" class="edge">
<title>sigma&#45;&gt;y</title>
<path fill="none" stroke="black" d="M187.72,-164.43C171.88,-149.69 153.19,-132.32 137.09,-117.34"/>
<polygon fill="black" stroke="black" points="139.74,-115.03 130.04,-110.79 134.98,-120.16 139.74,-115.03"/>
</g>
<!-- mu&#45;&gt;y -->
<g id="edge3" class="edge">
<title>mu&#45;&gt;y</title>
<path fill="none" stroke="black" d="M97.74,-169.27C97.93,-158.44 98.15,-145.73 98.37,-133.41"/>
<polygon fill="black" stroke="black" points="101.86,-133.84 98.53,-123.78 94.86,-133.72 101.86,-133.84"/>
</g>
</g>
</svg>
