<?xml version="1.0" encoding="UTF-8" standalone="no"?>
<!DOCTYPE svg PUBLIC "-//W3C//DTD SVG 1.1//EN"
 "http://www.w3.org/Graphics/SVG/1.1/DTD/svg11.dtd">
<!-- Generated by graphviz version 11.0.0 (0)
 -->
<!-- Pages: 1 -->
<svg width="447pt" height="247pt"
 viewBox="0.00 0.00 446.89 247.13" xmlns="http://www.w3.org/2000/svg" xmlns:xlink="http://www.w3.org/1999/xlink">
<g id="graph0" class="graph" transform="scale(1 1) rotate(0) translate(4 243.13)">
<polygon fill="white" stroke="none" points="-4,4 -4,-243.13 442.89,-243.13 442.89,4 -4,4"/>
<g id="clust1" class="cluster">
<title>clustery_obs (103)</title>
<path fill="none" stroke="black" d="M154.6,-8C154.6,-8 238.6,-8 238.6,-8 244.6,-8 250.6,-14 250.6,-20 250.6,-20 250.6,-117.82 250.6,-117.82 250.6,-123.82 244.6,-129.82 238.6,-129.82 238.6,-129.82 154.6,-129.82 154.6,-129.82 148.6,-129.82 142.6,-123.82 142.6,-117.82 142.6,-117.82 142.6,-20 142.6,-20 142.6,-14 148.6,-8 154.6,-8"/>
<text text-anchor="middle" x="209.98" y="-15.2" font-family="Times,serif" font-size="14.00">y_obs (103)</text>
</g>
<!-- y_nu -->
<g id="node1" class="node">
<title>y_nu</title>
<ellipse fill="none" stroke="black" cx="42.6" cy="-198.48" rx="42.6" ry="40.66"/>
<text text-anchor="middle" x="42.6" y="-209.93" font-family="Times,serif" font-size="14.00">y_nu</text>
<text text-anchor="middle" x="42.6" y="-193.43" font-family="Times,serif" font-size="14.00">~</text>
<text text-anchor="middle" x="42.6" y="-176.93" font-family="Times,serif" font-size="14.00">Gamma</text>
</g>
<!-- y -->
<g id="node5" class="node">
<title>y</title>
<ellipse fill="lightgrey" stroke="black" cx="196.6" cy="-81.16" rx="46.32" ry="40.66"/>
<text text-anchor="middle" x="196.6" y="-92.61" font-family="Times,serif" font-size="14.00">y</text>
<text text-anchor="middle" x="196.6" y="-76.11" font-family="Times,serif" font-size="14.00">~</text>
<text text-anchor="middle" x="196.6" y="-59.61" font-family="Times,serif" font-size="14.00">StudentT</text>
</g>
<!-- y_nu&#45;&gt;y -->
<g id="edge1" class="edge">
<title>y_nu&#45;&gt;y</title>
<path fill="none" stroke="black" d="M75.56,-172.23C81.87,-167.43 88.43,-162.46 94.6,-157.82 113.51,-143.6 134.49,-128.01 152.47,-114.69"/>
<polygon fill="black" stroke="black" points="154.41,-117.62 160.37,-108.86 150.25,-111.99 154.41,-117.62"/>
</g>
<!-- x -->
<g id="node2" class="node">
<title>x</title>
<ellipse fill="none" stroke="black" cx="144.6" cy="-198.48" rx="41.01" ry="40.66"/>
<text text-anchor="middle" x="144.6" y="-209.93" font-family="Times,serif" font-size="14.00">x</text>
<text text-anchor="middle" x="144.6" y="-193.43" font-family="Times,serif" font-size="14.00">~</text>
<text text-anchor="middle" x="144.6" y="-176.93" font-family="Times,serif" font-size="14.00">Normal</text>
</g>
<!-- x&#45;&gt;y -->
<g id="edge2" class="edge">
<title>x&#45;&gt;y</title>
<path fill="none" stroke="black" d="M161.06,-160.99C165.56,-150.99 170.52,-140.01 175.26,-129.5"/>
<polygon fill="black" stroke="black" points="178.36,-131.14 179.28,-120.58 171.98,-128.26 178.36,-131.14"/>
</g>
<!-- Intercept -->
<g id="node3" class="node">
<title>Intercept</title>
<ellipse fill="none" stroke="black" cx="248.6" cy="-198.48" rx="45.25" ry="40.66"/>
<text text-anchor="middle" x="248.6" y="-209.93" font-family="Times,serif" font-size="14.00">Intercept</text>
<text text-anchor="middle" x="248.6" y="-193.43" font-family="Times,serif" font-size="14.00">~</text>
<text text-anchor="middle" x="248.6" y="-176.93" font-family="Times,serif" font-size="14.00">Normal</text>
</g>
<!-- Intercept&#45;&gt;y -->
<g id="edge3" class="edge">
<title>Intercept&#45;&gt;y</title>
<path fill="none" stroke="black" d="M231.86,-160.35C227.46,-150.58 222.64,-139.9 218.02,-129.66"/>
<polygon fill="black" stroke="black" points="221.23,-128.27 213.93,-120.59 214.85,-131.15 221.23,-128.27"/>
</g>
<!-- y_sigma -->
<g id="node4" class="node">
<title>y_sigma</title>
<ellipse fill="none" stroke="black" cx="375.6" cy="-198.48" rx="63.29" ry="40.66"/>
<text text-anchor="middle" x="375.6" y="-209.93" font-family="Times,serif" font-size="14.00">y_sigma</text>
<text text-anchor="middle" x="375.6" y="-193.43" font-family="Times,serif" font-size="14.00">~</text>
<text text-anchor="middle" x="375.6" y="-176.93" font-family="Times,serif" font-size="14.00">HalfStudentT</text>
</g>
<!-- y_sigma&#45;&gt;y -->
<g id="edge4" class="edge">
<title>y_sigma&#45;&gt;y</title>
<path fill="none" stroke="black" d="M331.36,-168.97C304.62,-151.74 270.56,-129.81 243.38,-112.29"/>
<polygon fill="black" stroke="black" points="245.28,-109.35 234.97,-106.88 241.49,-115.24 245.28,-109.35"/>
</g>
</g>
</svg>
