<?xml version="1.0" encoding="UTF-8" standalone="no"?>
<!DOCTYPE svg PUBLIC "-//W3C//DTD SVG 1.1//EN"
 "http://www.w3.org/Graphics/SVG/1.1/DTD/svg11.dtd">
<!-- Generated by graphviz version 11.0.0 (0)
 -->
<!-- Pages: 1 -->
<svg width="399pt" height="364pt"
 viewBox="0.00 0.00 398.54 364.45" xmlns="http://www.w3.org/2000/svg" xmlns:xlink="http://www.w3.org/1999/xlink">
<g id="graph0" class="graph" transform="scale(1 1) rotate(0) translate(4 360.45)">
<polygon fill="white" stroke="none" points="-4,4 -4,-360.45 394.54,-360.45 394.54,4 -4,4"/>
<g id="clust1" class="cluster">
<title>cluster__obs__ (103)</title>
<path fill="none" stroke="black" d="M56.25,-8C56.25,-8 140.25,-8 140.25,-8 146.25,-8 152.25,-14 152.25,-20 152.25,-20 152.25,-223.23 152.25,-223.23 152.25,-229.23 146.25,-235.23 140.25,-235.23 140.25,-235.23 56.25,-235.23 56.25,-235.23 50.25,-235.23 44.25,-229.23 44.25,-223.23 44.25,-223.23 44.25,-20 44.25,-20 44.25,-14 50.25,-8 56.25,-8"/>
<text text-anchor="middle" x="104.88" y="-15.2" font-family="Times,serif" font-size="14.00">__obs__ (103)</text>
</g>
<!-- Intercept -->
<g id="node1" class="node">
<title>Intercept</title>
<ellipse fill="none" stroke="black" cx="45.25" cy="-315.79" rx="45.25" ry="40.66"/>
<text text-anchor="middle" x="45.25" y="-327.24" font-family="Times,serif" font-size="14.00">Intercept</text>
<text text-anchor="middle" x="45.25" y="-310.74" font-family="Times,serif" font-size="14.00">~</text>
<text text-anchor="middle" x="45.25" y="-294.24" font-family="Times,serif" font-size="14.00">Normal</text>
</g>
<!-- mu -->
<g id="node5" class="node">
<title>mu</title>
<polygon fill="none" stroke="black" points="142.38,-227.23 52.13,-227.23 52.13,-169.73 142.38,-169.73 142.38,-227.23"/>
<text text-anchor="middle" x="97.25" y="-209.93" font-family="Times,serif" font-size="14.00">mu</text>
<text text-anchor="middle" x="97.25" y="-193.43" font-family="Times,serif" font-size="14.00">~</text>
<text text-anchor="middle" x="97.25" y="-176.93" font-family="Times,serif" font-size="14.00">Deterministic</text>
</g>
<!-- Intercept&#45;&gt;mu -->
<g id="edge1" class="edge">
<title>Intercept&#45;&gt;mu</title>
<path fill="none" stroke="black" d="M61.99,-277.67C67.75,-264.91 74.19,-250.61 79.99,-237.77"/>
<polygon fill="black" stroke="black" points="83.13,-239.32 84.05,-228.76 76.75,-236.44 83.13,-239.32"/>
</g>
<!-- nu -->
<g id="node2" class="node">
<title>nu</title>
<ellipse fill="none" stroke="black" cx="203.25" cy="-198.48" rx="42.6" ry="40.66"/>
<text text-anchor="middle" x="203.25" y="-209.93" font-family="Times,serif" font-size="14.00">nu</text>
<text text-anchor="middle" x="203.25" y="-193.43" font-family="Times,serif" font-size="14.00">~</text>
<text text-anchor="middle" x="203.25" y="-176.93" font-family="Times,serif" font-size="14.00">Gamma</text>
</g>
<!-- y -->
<g id="node6" class="node">
<title>y</title>
<ellipse fill="lightgrey" stroke="black" cx="98.25" cy="-81.16" rx="46.32" ry="40.66"/>
<text text-anchor="middle" x="98.25" y="-92.61" font-family="Times,serif" font-size="14.00">y</text>
<text text-anchor="middle" x="98.25" y="-76.11" font-family="Times,serif" font-size="14.00">~</text>
<text text-anchor="middle" x="98.25" y="-59.61" font-family="Times,serif" font-size="14.00">StudentT</text>
</g>
<!-- nu&#45;&gt;y -->
<g id="edge5" class="edge">
<title>nu&#45;&gt;y</title>
<path fill="none" stroke="black" d="M175.67,-167.18C163.07,-153.34 147.98,-136.77 134.49,-121.95"/>
<polygon fill="black" stroke="black" points="137.1,-119.62 127.77,-114.58 131.92,-124.33 137.1,-119.62"/>
</g>
<!-- x -->
<g id="node3" class="node">
<title>x</title>
<ellipse fill="none" stroke="black" cx="149.25" cy="-315.79" rx="41.01" ry="40.66"/>
<text text-anchor="middle" x="149.25" y="-327.24" font-family="Times,serif" font-size="14.00">x</text>
<text text-anchor="middle" x="149.25" y="-310.74" font-family="Times,serif" font-size="14.00">~</text>
<text text-anchor="middle" x="149.25" y="-294.24" font-family="Times,serif" font-size="14.00">Normal</text>
</g>
<!-- x&#45;&gt;mu -->
<g id="edge2" class="edge">
<title>x&#45;&gt;mu</title>
<path fill="none" stroke="black" d="M132.8,-278.31C127.04,-265.52 120.54,-251.12 114.7,-238.17"/>
<polygon fill="black" stroke="black" points="117.9,-236.74 110.6,-229.07 111.52,-239.62 117.9,-236.74"/>
</g>
<!-- sigma -->
<g id="node4" class="node">
<title>sigma</title>
<ellipse fill="none" stroke="black" cx="327.25" cy="-198.48" rx="63.29" ry="40.66"/>
<text text-anchor="middle" x="327.25" y="-209.93" font-family="Times,serif" font-size="14.00">sigma</text>
<text text-anchor="middle" x="327.25" y="-193.43" font-family="Times,serif" font-size="14.00">~</text>
<text text-anchor="middle" x="327.25" y="-176.93" font-family="Times,serif" font-size="14.00">HalfStudentT</text>
</g>
<!-- sigma&#45;&gt;y -->
<g id="edge4" class="edge">
<title>sigma&#45;&gt;y</title>
<path fill="none" stroke="black" d="M280.2,-171.08C271.93,-166.58 263.37,-162 255.25,-157.82 220.1,-139.68 179.91,-120.34 149,-105.75"/>
<polygon fill="black" stroke="black" points="150.8,-102.73 140.26,-101.64 147.82,-109.07 150.8,-102.73"/>
</g>
<!-- mu&#45;&gt;y -->
<g id="edge3" class="edge">
<title>mu&#45;&gt;y</title>
<path fill="none" stroke="black" d="M97.5,-169.27C97.59,-158.44 97.7,-145.73 97.81,-133.41"/>
<polygon fill="black" stroke="black" points="101.31,-133.81 97.89,-123.78 94.31,-133.75 101.31,-133.81"/>
</g>
</g>
</svg>
