<?xml version="1.0" encoding="UTF-8" standalone="no"?>
<!DOCTYPE svg PUBLIC "-//W3C//DTD SVG 1.1//EN"
 "http://www.w3.org/Graphics/SVG/1.1/DTD/svg11.dtd">
<!-- Generated by graphviz version 11.0.0 (0)
 -->
<!-- Pages: 1 -->
<svg width="343pt" height="247pt"
 viewBox="0.00 0.00 343.30 247.13" xmlns="http://www.w3.org/2000/svg" xmlns:xlink="http://www.w3.org/1999/xlink">
<g id="graph0" class="graph" transform="scale(1 1) rotate(0) translate(4 243.13)">
<polygon fill="white" stroke="none" points="-4,4 -4,-243.13 339.3,-243.13 339.3,4 -4,4"/>
<g id="clust1" class="cluster">
<title>clustery_obs (103)</title>
<path fill="none" stroke="black" d="M108.01,-8C108.01,-8 182.01,-8 182.01,-8 188.01,-8 194.01,-14 194.01,-20 194.01,-20 194.01,-117.82 194.01,-117.82 194.01,-123.82 188.01,-129.82 182.01,-129.82 182.01,-129.82 108.01,-129.82 108.01,-129.82 102.01,-129.82 96.01,-123.82 96.01,-117.82 96.01,-117.82 96.01,-20 96.01,-20 96.01,-14 102.01,-8 108.01,-8"/>
<text text-anchor="middle" x="153.39" y="-15.2" font-family="Times,serif" font-size="14.00">y_obs (103)</text>
</g>
<!-- x -->
<g id="node1" class="node">
<title>x</title>
<ellipse fill="none" stroke="black" cx="41.01" cy="-198.48" rx="41.01" ry="40.66"/>
<text text-anchor="middle" x="41.01" y="-209.93" font-family="Times,serif" font-size="14.00">x</text>
<text text-anchor="middle" x="41.01" y="-193.43" font-family="Times,serif" font-size="14.00">~</text>
<text text-anchor="middle" x="41.01" y="-176.93" font-family="Times,serif" font-size="14.00">Normal</text>
</g>
<!-- y -->
<g id="node4" class="node">
<title>y</title>
<ellipse fill="lightgrey" stroke="black" cx="145.01" cy="-81.16" rx="41.01" ry="40.66"/>
<text text-anchor="middle" x="145.01" y="-92.61" font-family="Times,serif" font-size="14.00">y</text>
<text text-anchor="middle" x="145.01" y="-76.11" font-family="Times,serif" font-size="14.00">~</text>
<text text-anchor="middle" x="145.01" y="-59.61" font-family="Times,serif" font-size="14.00">Normal</text>
</g>
<!-- x&#45;&gt;y -->
<g id="edge1" class="edge">
<title>x&#45;&gt;y</title>
<path fill="none" stroke="black" d="M68.07,-167.48C81.07,-153.06 96.79,-135.63 110.63,-120.28"/>
<polygon fill="black" stroke="black" points="112.98,-122.9 117.08,-113.13 107.78,-118.21 112.98,-122.9"/>
</g>
<!-- Intercept -->
<g id="node2" class="node">
<title>Intercept</title>
<ellipse fill="none" stroke="black" cx="145.01" cy="-198.48" rx="45.25" ry="40.66"/>
<text text-anchor="middle" x="145.01" y="-209.93" font-family="Times,serif" font-size="14.00">Intercept</text>
<text text-anchor="middle" x="145.01" y="-193.43" font-family="Times,serif" font-size="14.00">~</text>
<text text-anchor="middle" x="145.01" y="-176.93" font-family="Times,serif" font-size="14.00">Normal</text>
</g>
<!-- Intercept&#45;&gt;y -->
<g id="edge2" class="edge">
<title>Intercept&#45;&gt;y</title>
<path fill="none" stroke="black" d="M145.01,-157.47C145.01,-149.69 145.01,-141.43 145.01,-133.34"/>
<polygon fill="black" stroke="black" points="148.51,-133.61 145.01,-123.61 141.51,-133.61 148.51,-133.61"/>
</g>
<!-- y_sigma -->
<g id="node3" class="node">
<title>y_sigma</title>
<ellipse fill="none" stroke="black" cx="272.01" cy="-198.48" rx="63.29" ry="40.66"/>
<text text-anchor="middle" x="272.01" y="-209.93" font-family="Times,serif" font-size="14.00">y_sigma</text>
<text text-anchor="middle" x="272.01" y="-193.43" font-family="Times,serif" font-size="14.00">~</text>
<text text-anchor="middle" x="272.01" y="-176.93" font-family="Times,serif" font-size="14.00">HalfStudentT</text>
</g>
<!-- y_sigma&#45;&gt;y -->
<g id="edge3" class="edge">
<title>y_sigma&#45;&gt;y</title>
<path fill="none" stroke="black" d="M235.96,-164.74C219.47,-149.77 199.93,-132.02 183.19,-116.83"/>
<polygon fill="black" stroke="black" points="185.6,-114.29 175.85,-110.16 180.9,-119.47 185.6,-114.29"/>
</g>
</g>
</svg>
