<?xml version="1.0" encoding="UTF-8" standalone="no"?>
<!DOCTYPE svg PUBLIC "-//W3C//DTD SVG 1.1//EN"
 "http://www.w3.org/Graphics/SVG/1.1/DTD/svg11.dtd">
<!-- Generated by graphviz version 11.0.0 (0)
 -->
<!-- Pages: 1 -->
<svg width="299pt" height="364pt"
 viewBox="0.00 0.00 298.60 364.45" xmlns="http://www.w3.org/2000/svg" xmlns:xlink="http://www.w3.org/1999/xlink">
<g id="graph0" class="graph" transform="scale(1 1) rotate(0) translate(4 360.45)">
<polygon fill="white" stroke="none" points="-4,4 -4,-360.45 294.6,-360.45 294.6,4 -4,4"/>
<g id="clust1" class="cluster">
<title>cluster__obs__ (352)</title>
<path fill="none" stroke="black" d="M148.29,-8C148.29,-8 230.29,-8 230.29,-8 236.29,-8 242.29,-14 242.29,-20 242.29,-20 242.29,-223.23 242.29,-223.23 242.29,-229.23 236.29,-235.23 230.29,-235.23 230.29,-235.23 148.29,-235.23 148.29,-235.23 142.29,-235.23 136.29,-229.23 136.29,-223.23 136.29,-223.23 136.29,-20 136.29,-20 136.29,-14 142.29,-8 148.29,-8"/>
<text text-anchor="middle" x="194.91" y="-15.2" font-family="Times,serif" font-size="14.00">__obs__ (352)</text>
</g>
<!-- sigma -->
<g id="node1" class="node">
<title>sigma</title>
<ellipse fill="none" stroke="black" cx="63.29" cy="-198.48" rx="63.29" ry="40.66"/>
<text text-anchor="middle" x="63.29" y="-209.93" font-family="Times,serif" font-size="14.00">sigma</text>
<text text-anchor="middle" x="63.29" y="-193.43" font-family="Times,serif" font-size="14.00">~</text>
<text text-anchor="middle" x="63.29" y="-176.93" font-family="Times,serif" font-size="14.00">HalfStudentT</text>
</g>
<!-- height -->
<g id="node5" class="node">
<title>height</title>
<ellipse fill="lightgrey" stroke="black" cx="187.29" cy="-81.16" rx="41.01" ry="40.66"/>
<text text-anchor="middle" x="187.29" y="-92.61" font-family="Times,serif" font-size="14.00">height</text>
<text text-anchor="middle" x="187.29" y="-76.11" font-family="Times,serif" font-size="14.00">~</text>
<text text-anchor="middle" x="187.29" y="-59.61" font-family="Times,serif" font-size="14.00">Normal</text>
</g>
<!-- sigma&#45;&gt;height -->
<g id="edge3" class="edge">
<title>sigma&#45;&gt;height</title>
<path fill="none" stroke="black" d="M98.82,-164.43C114.66,-149.69 133.35,-132.32 149.45,-117.34"/>
<polygon fill="black" stroke="black" points="151.56,-120.16 156.5,-110.79 146.8,-115.03 151.56,-120.16"/>
</g>
<!-- Intercept -->
<g id="node2" class="node">
<title>Intercept</title>
<ellipse fill="none" stroke="black" cx="134.29" cy="-315.79" rx="45.25" ry="40.66"/>
<text text-anchor="middle" x="134.29" y="-327.24" font-family="Times,serif" font-size="14.00">Intercept</text>
<text text-anchor="middle" x="134.29" y="-310.74" font-family="Times,serif" font-size="14.00">~</text>
<text text-anchor="middle" x="134.29" y="-294.24" font-family="Times,serif" font-size="14.00">Normal</text>
</g>
<!-- mu -->
<g id="node4" class="node">
<title>mu</title>
<polygon fill="none" stroke="black" points="234.41,-227.23 144.16,-227.23 144.16,-169.73 234.41,-169.73 234.41,-227.23"/>
<text text-anchor="middle" x="189.29" y="-209.93" font-family="Times,serif" font-size="14.00">mu</text>
<text text-anchor="middle" x="189.29" y="-193.43" font-family="Times,serif" font-size="14.00">~</text>
<text text-anchor="middle" x="189.29" y="-176.93" font-family="Times,serif" font-size="14.00">Deterministic</text>
</g>
<!-- Intercept&#45;&gt;mu -->
<g id="edge1" class="edge">
<title>Intercept&#45;&gt;mu</title>
<path fill="none" stroke="black" d="M151.84,-277.99C157.99,-265.09 164.91,-250.58 171.11,-237.58"/>
<polygon fill="black" stroke="black" points="174.11,-239.43 175.25,-228.9 167.79,-236.42 174.11,-239.43"/>
</g>
<!-- weight_c -->
<g id="node3" class="node">
<title>weight_c</title>
<ellipse fill="none" stroke="black" cx="244.29" cy="-315.79" rx="46.32" ry="40.66"/>
<text text-anchor="middle" x="244.29" y="-327.24" font-family="Times,serif" font-size="14.00">weight_c</text>
<text text-anchor="middle" x="244.29" y="-310.74" font-family="Times,serif" font-size="14.00">~</text>
<text text-anchor="middle" x="244.29" y="-294.24" font-family="Times,serif" font-size="14.00">Normal</text>
</g>
<!-- weight_c&#45;&gt;mu -->
<g id="edge2" class="edge">
<title>weight_c&#45;&gt;mu</title>
<path fill="none" stroke="black" d="M226.73,-277.99C220.58,-265.09 213.66,-250.58 207.46,-237.58"/>
<polygon fill="black" stroke="black" points="210.78,-236.42 203.32,-228.9 204.47,-239.43 210.78,-236.42"/>
</g>
<!-- mu&#45;&gt;height -->
<g id="edge4" class="edge">
<title>mu&#45;&gt;height</title>
<path fill="none" stroke="black" d="M188.8,-169.27C188.61,-158.44 188.39,-145.73 188.17,-133.41"/>
<polygon fill="black" stroke="black" points="191.68,-133.72 188.01,-123.78 184.68,-133.84 191.68,-133.72"/>
</g>
</g>
</svg>
