<?xml version="1.0" encoding="UTF-8" standalone="no"?>
<!DOCTYPE svg PUBLIC "-//W3C//DTD SVG 1.1//EN"
 "http://www.w3.org/Graphics/SVG/1.1/DTD/svg11.dtd">
<!-- Generated by graphviz version 11.0.0 (0)
 -->
<!-- Pages: 1 -->
<svg width="428pt" height="188pt"
 viewBox="0.00 0.00 427.88 188.00" xmlns="http://www.w3.org/2000/svg" xmlns:xlink="http://www.w3.org/1999/xlink">
<g id="graph0" class="graph" transform="scale(1 1) rotate(0) translate(4 184)">
<polygon fill="white" stroke="none" points="-4,4 -4,-184 423.88,-184 423.88,4 -4,4"/>
<!-- Z -->
<g id="node1" class="node">
<title>Z</title>
<text text-anchor="middle" x="107.38" y="-156.95" font-family="Times,serif" font-size="14.00">Z (Disponibilità gruppo di supporto)</text>
</g>
<!-- W -->
<g id="node2" class="node">
<title>W</title>
<text text-anchor="middle" x="232.38" y="-84.95" font-family="Times,serif" font-size="14.00">W (Supporto sociale)</text>
</g>
<!-- Z&#45;&gt;W -->
<g id="edge1" class="edge">
<title>Z&#45;&gt;W</title>
<path fill="none" stroke="black" d="M137.63,-144.05C154.22,-134.77 174.97,-123.15 192.82,-113.15"/>
<polygon fill="black" stroke="black" points="194.06,-116.47 201.07,-108.53 190.64,-110.36 194.06,-116.47"/>
</g>
<!-- Y -->
<g id="node3" class="node">
<title>Y</title>
<text text-anchor="middle" x="279.38" y="-12.95" font-family="Times,serif" font-size="14.00">Y (Ansia)</text>
</g>
<!-- W&#45;&gt;Y -->
<g id="edge2" class="edge">
<title>W&#45;&gt;Y</title>
<path fill="none" stroke="black" d="M243.75,-72.05C249.18,-63.97 255.79,-54.12 261.84,-45.11"/>
<polygon fill="black" stroke="black" points="264.59,-47.3 267.26,-37.05 258.78,-43.4 264.59,-47.3"/>
</g>
<!-- U -->
<g id="node4" class="node">
<title>U</title>
<text text-anchor="middle" x="326.38" y="-156.95" font-family="Times,serif" font-size="14.00">U (Confondente non osservato)</text>
</g>
<!-- U&#45;&gt;W -->
<g id="edge3" class="edge">
<title>U&#45;&gt;W</title>
<path fill="none" stroke="black" d="M303.62,-144.05C291.73,-135.2 276.98,-124.22 264,-114.55"/>
<polygon fill="black" stroke="black" points="266.25,-111.86 256.13,-108.69 262.06,-117.47 266.25,-111.86"/>
</g>
<!-- U&#45;&gt;Y -->
<g id="edge4" class="edge">
<title>U&#45;&gt;Y</title>
<path fill="none" stroke="black" d="M324.2,-144.22C321.53,-126.03 316.22,-96.36 307.38,-72 304.13,-63.06 299.63,-53.75 295.19,-45.47"/>
<polygon fill="black" stroke="black" points="298.37,-43.98 290.43,-36.96 292.26,-47.39 298.37,-43.98"/>
</g>
</g>
</svg>
