<?xml version="1.0" encoding="UTF-8" standalone="no"?>
<!DOCTYPE svg PUBLIC "-//W3C//DTD SVG 1.1//EN"
 "http://www.w3.org/Graphics/SVG/1.1/DTD/svg11.dtd">
<!-- Generated by graphviz version 11.0.0 (0)
 -->
<!-- Pages: 1 -->
<svg width="538pt" height="385pt"
 viewBox="0.00 0.00 538.25 384.95" xmlns="http://www.w3.org/2000/svg" xmlns:xlink="http://www.w3.org/1999/xlink">
<g id="graph0" class="graph" transform="scale(1 1) rotate(0) translate(4 380.95)">
<polygon fill="white" stroke="none" points="-4,4 -4,-380.95 534.25,-380.95 534.25,4 -4,4"/>
<g id="clust1" class="cluster">
<title>clustergroup_dim (1)</title>
<path fill="none" stroke="black" d="M312.25,-247.13C312.25,-247.13 386.25,-247.13 386.25,-247.13 392.25,-247.13 398.25,-253.13 398.25,-259.13 398.25,-259.13 398.25,-356.95 398.25,-356.95 398.25,-362.95 392.25,-368.95 386.25,-368.95 386.25,-368.95 312.25,-368.95 312.25,-368.95 306.25,-368.95 300.25,-362.95 300.25,-356.95 300.25,-356.95 300.25,-259.13 300.25,-259.13 300.25,-253.13 306.25,-247.13 312.25,-247.13"/>
<text text-anchor="middle" x="350.5" y="-254.33" font-family="Times,serif" font-size="14.00">group_dim (1)</text>
</g>
<g id="clust2" class="cluster">
<title>clustergroup:I_c_dim (1)</title>
<path fill="none" stroke="black" d="M418.25,-247.13C418.25,-247.13 510.25,-247.13 510.25,-247.13 516.25,-247.13 522.25,-253.13 522.25,-259.13 522.25,-259.13 522.25,-356.95 522.25,-356.95 522.25,-362.95 516.25,-368.95 510.25,-368.95 510.25,-368.95 418.25,-368.95 418.25,-368.95 412.25,-368.95 406.25,-362.95 406.25,-356.95 406.25,-356.95 406.25,-259.13 406.25,-259.13 406.25,-253.13 412.25,-247.13 418.25,-247.13"/>
<text text-anchor="middle" x="464" y="-254.33" font-family="Times,serif" font-size="14.00">group:I_c_dim (1)</text>
</g>
<g id="clust3" class="cluster">
<title>cluster__obs__ (8645)</title>
<path fill="none" stroke="black" d="M188.25,-8C188.25,-8 310.25,-8 310.25,-8 316.25,-8 322.25,-14 322.25,-20 322.25,-20 322.25,-223.23 322.25,-223.23 322.25,-229.23 316.25,-235.23 310.25,-235.23 310.25,-235.23 188.25,-235.23 188.25,-235.23 182.25,-235.23 176.25,-229.23 176.25,-223.23 176.25,-223.23 176.25,-20 176.25,-20 176.25,-14 182.25,-8 188.25,-8"/>
<text text-anchor="middle" x="271.5" y="-15.2" font-family="Times,serif" font-size="14.00">__obs__ (8645)</text>
</g>
<!-- alpha -->
<g id="node1" class="node">
<title>alpha</title>
<ellipse fill="none" stroke="black" cx="111.25" cy="-198.48" rx="57.45" ry="40.66"/>
<text text-anchor="middle" x="111.25" y="-209.93" font-family="Times,serif" font-size="14.00">alpha</text>
<text text-anchor="middle" x="111.25" y="-193.43" font-family="Times,serif" font-size="14.00">~</text>
<text text-anchor="middle" x="111.25" y="-176.93" font-family="Times,serif" font-size="14.00">HalfCauchy</text>
</g>
<!-- passive_count -->
<g id="node8" class="node">
<title>passive_count</title>
<ellipse fill="lightgrey" stroke="black" cx="249.25" cy="-81.16" rx="65.41" ry="40.66"/>
<text text-anchor="middle" x="249.25" y="-92.61" font-family="Times,serif" font-size="14.00">passive_count</text>
<text text-anchor="middle" x="249.25" y="-76.11" font-family="Times,serif" font-size="14.00">~</text>
<text text-anchor="middle" x="249.25" y="-59.61" font-family="Times,serif" font-size="14.00">NegBinomial</text>
</g>
<!-- alpha&#45;&gt;passive_count -->
<g id="edge6" class="edge">
<title>alpha&#45;&gt;passive_count</title>
<path fill="none" stroke="black" d="M147.87,-166.88C164.62,-152.88 184.65,-136.14 202.47,-121.25"/>
<polygon fill="black" stroke="black" points="204.43,-124.18 209.86,-115.08 199.94,-118.81 204.43,-124.18"/>
</g>
<!-- Intercept -->
<g id="node2" class="node">
<title>Intercept</title>
<ellipse fill="none" stroke="black" cx="45.25" cy="-320.29" rx="45.25" ry="40.66"/>
<text text-anchor="middle" x="45.25" y="-331.74" font-family="Times,serif" font-size="14.00">Intercept</text>
<text text-anchor="middle" x="45.25" y="-315.24" font-family="Times,serif" font-size="14.00">~</text>
<text text-anchor="middle" x="45.25" y="-298.74" font-family="Times,serif" font-size="14.00">Normal</text>
</g>
<!-- mu -->
<g id="node7" class="node">
<title>mu</title>
<polygon fill="none" stroke="black" points="294.38,-227.23 204.13,-227.23 204.13,-169.73 294.38,-169.73 294.38,-227.23"/>
<text text-anchor="middle" x="249.25" y="-209.93" font-family="Times,serif" font-size="14.00">mu</text>
<text text-anchor="middle" x="249.25" y="-193.43" font-family="Times,serif" font-size="14.00">~</text>
<text text-anchor="middle" x="249.25" y="-176.93" font-family="Times,serif" font-size="14.00">Deterministic</text>
</g>
<!-- Intercept&#45;&gt;mu -->
<g id="edge1" class="edge">
<title>Intercept&#45;&gt;mu</title>
<path fill="none" stroke="black" d="M64.03,-282.8C72.86,-269.34 84.69,-255.38 99.25,-247.13 129.58,-229.96 143.99,-249.53 177.25,-239.13 183.04,-237.33 188.9,-235.02 194.63,-232.44"/>
<polygon fill="black" stroke="black" points="195.93,-235.7 203.42,-228.2 192.89,-229.4 195.93,-235.7"/>
</g>
<!-- wc_c -->
<g id="node3" class="node">
<title>wc_c</title>
<ellipse fill="none" stroke="black" cx="149.25" cy="-320.29" rx="41.01" ry="40.66"/>
<text text-anchor="middle" x="149.25" y="-331.74" font-family="Times,serif" font-size="14.00">wc_c</text>
<text text-anchor="middle" x="149.25" y="-315.24" font-family="Times,serif" font-size="14.00">~</text>
<text text-anchor="middle" x="149.25" y="-298.74" font-family="Times,serif" font-size="14.00">Normal</text>
</g>
<!-- wc_c&#45;&gt;mu -->
<g id="edge3" class="edge">
<title>wc_c&#45;&gt;mu</title>
<path fill="none" stroke="black" d="M170.8,-285.2C179.16,-272.8 189.15,-258.95 199.25,-247.13 202.54,-243.29 206.11,-239.42 209.77,-235.63"/>
<polygon fill="black" stroke="black" points="212.2,-238.14 216.79,-228.59 207.25,-233.2 212.2,-238.14"/>
</g>
<!-- I_c -->
<g id="node4" class="node">
<title>I_c</title>
<ellipse fill="none" stroke="black" cx="249.25" cy="-320.29" rx="41.01" ry="40.66"/>
<text text-anchor="middle" x="249.25" y="-331.74" font-family="Times,serif" font-size="14.00">I_c</text>
<text text-anchor="middle" x="249.25" y="-315.24" font-family="Times,serif" font-size="14.00">~</text>
<text text-anchor="middle" x="249.25" y="-298.74" font-family="Times,serif" font-size="14.00">Normal</text>
</g>
<!-- I_c&#45;&gt;mu -->
<g id="edge2" class="edge">
<title>I_c&#45;&gt;mu</title>
<path fill="none" stroke="black" d="M249.25,-279.4C249.25,-266.37 249.25,-251.91 249.25,-238.91"/>
<polygon fill="black" stroke="black" points="252.75,-238.98 249.25,-228.98 245.75,-238.98 252.75,-238.98"/>
</g>
<!-- group -->
<g id="node5" class="node">
<title>group</title>
<ellipse fill="none" stroke="black" cx="349.25" cy="-320.29" rx="41.01" ry="40.66"/>
<text text-anchor="middle" x="349.25" y="-331.74" font-family="Times,serif" font-size="14.00">group</text>
<text text-anchor="middle" x="349.25" y="-315.24" font-family="Times,serif" font-size="14.00">~</text>
<text text-anchor="middle" x="349.25" y="-298.74" font-family="Times,serif" font-size="14.00">Normal</text>
</g>
<!-- group&#45;&gt;mu -->
<g id="edge4" class="edge">
<title>group&#45;&gt;mu</title>
<path fill="none" stroke="black" d="M327.71,-285.2C319.35,-272.8 309.36,-258.95 299.25,-247.13 295.96,-243.29 292.4,-239.42 288.74,-235.63"/>
<polygon fill="black" stroke="black" points="291.26,-233.2 281.72,-228.59 286.31,-238.14 291.26,-233.2"/>
</g>
<!-- group&amp;I_c -->
<g id="node6" class="node">
<title>group&amp;I_c</title>
<ellipse fill="none" stroke="black" cx="462.25" cy="-320.29" rx="48.44" ry="40.66"/>
<text text-anchor="middle" x="462.25" y="-331.74" font-family="Times,serif" font-size="14.00">group:I_c</text>
<text text-anchor="middle" x="462.25" y="-315.24" font-family="Times,serif" font-size="14.00">~</text>
<text text-anchor="middle" x="462.25" y="-298.74" font-family="Times,serif" font-size="14.00">Normal</text>
</g>
<!-- group&amp;I_c&#45;&gt;mu -->
<g id="edge5" class="edge">
<title>group&amp;I_c&#45;&gt;mu</title>
<path fill="none" stroke="black" d="M439.66,-284.27C429.6,-271.02 416.74,-256.83 402.25,-247.13 373.32,-227.78 336.11,-215.96 305.64,-208.93"/>
<polygon fill="black" stroke="black" points="306.74,-205.59 296.22,-206.88 305.25,-212.43 306.74,-205.59"/>
</g>
<!-- mu&#45;&gt;passive_count -->
<g id="edge7" class="edge">
<title>mu&#45;&gt;passive_count</title>
<path fill="none" stroke="black" d="M249.25,-169.27C249.25,-158.44 249.25,-145.73 249.25,-133.41"/>
<polygon fill="black" stroke="black" points="252.75,-133.78 249.25,-123.78 245.75,-133.78 252.75,-133.78"/>
</g>
</g>
</svg>
